<svg xmlns="http://www.w3.org/2000/svg" xmlns:xlink="http://www.w3.org/1999/xlink" viewBox="0 0 300 380" width="300" height="380">
  <rect width="300" height="380" fill="#ed1000"/>
  <svg x="34" y="46" width="232" height="288" viewBox="0 0 2560 1920" preserveAspectRatio="xMidYMid meet">
<path transform="translate(0,0)" fill="rgb(237,16,0)" d="M 0 0 L 2560 0 L 2560 1920 L 0 1920 L 0 0 z"/>
<path transform="translate(0,0)" fill="rgb(254,254,254)" d="M 436.611 721.872 C 483.419 721.152 532.053 721.837 579.008 721.846 C 599.333 768.168 619.22 818.604 638.686 865.507 L 780.056 1205.91 C 730.647 1206.71 679.16 1205.97 629.58 1205.97 C 616.094 1169.99 600.73 1132.87 586.526 1096.96 L 502.375 884.144 C 496.394 899.941 489.779 916.016 483.526 931.748 C 462.672 986.082 439.011 1040.9 418.814 1095.26 C 449.809 1096.4 486.783 1095.44 518.247 1095.44 C 522.79 1106.41 527.504 1120.95 531.655 1132.51 L 558.032 1205.97 L 233.691 1205.98 C 239.93 1189.23 249.126 1168.88 256.124 1152.18 L 301.314 1044.41 L 436.611 721.872 z"/>
<path transform="translate(0,0)" fill="rgb(254,254,254)" d="M 994.004 707.263 L 1119.66 707.302 C 1120.79 760.774 1119.76 818.046 1119.76 871.767 L 1119.7 1184.4 C 1050.42 1211.94 959.475 1223.25 887.234 1201.96 C 784.204 1171.17 743.433 1079.29 760.396 978.248 C 768.644 929.113 793.921 884.991 835.341 856.374 C 883.627 823.012 937.114 816.663 993.846 827.08 L 994.004 707.263 z"/>
<path transform="translate(0,0)" fill="rgb(237,16,0)" d="M 956.797 924.27 C 970.812 923.33 980.51 925.025 993.79 928.898 C 995.087 985.841 993.881 1047.48 993.875 1104.81 C 969.743 1112.17 952.31 1111.82 928.958 1102.45 C 863.47 1070.58 868.775 952.376 937.925 928.292 C 944.343 926.056 950.089 925.149 956.797 924.27 z"/>
<path transform="translate(0,0)" fill="rgb(254,254,254)" d="M 1567.98 707.332 L 1694.32 707.338 C 1694.11 747.303 1694.14 787.268 1694.39 827.232 C 1706.55 824.876 1718.84 823.31 1731.2 822.542 C 1840.04 816.473 1927.35 891.137 1930.37 1000.79 C 1932.07 1062.38 1919.1 1107.85 1877.32 1153.63 C 1854.97 1174.41 1838.81 1184.47 1810.16 1196.39 C 1744.18 1223.85 1632.49 1213.07 1567.85 1184.26 L 1567.77 907.233 C 1567.76 841.62 1566.64 772.511 1567.98 707.332 z"/>
<path transform="translate(0,0)" fill="rgb(237,16,0)" d="M 1710.51 926.265 C 1771.79 919.744 1808.96 962.306 1804.74 1022.39 C 1802.71 1051.37 1794.37 1072.86 1772.18 1092.32 C 1768.67 1094.98 1764.96 1097.37 1761.09 1099.48 C 1739.55 1111.41 1717.34 1111.14 1694.39 1104.4 C 1693.75 1081.31 1694.23 1055.92 1694.22 1032.67 C 1694.11 998.568 1694.17 964.468 1694.41 930.369 C 1700.54 928.292 1704.2 927.553 1710.51 926.265 z"/>
<path transform="translate(0,0)" fill="rgb(254,254,254)" d="M 1452.04 853.527 C 1541.61 912.904 1566.92 1033.2 1508.87 1123.63 C 1450.81 1214.07 1330.91 1241.14 1239.63 1184.42 C 1148.35 1127.7 1119.52 1008.21 1174.89 916.105 C 1230.26 824.002 1349.32 793.416 1442.22 847.428 L 1449.58 847.023 C 1449.7 842.991 1446.37 843.376 1446.97 840.316 C 1450.55 840.208 1448.93 839.752 1451.96 841.879 C 1453.34 847.005 1450.48 847.016 1452.04 853.527 z"/>
<path transform="translate(0,0)" fill="rgb(237,16,0)" d="M 1442.22 847.428 L 1449.58 847.023 C 1449.7 842.991 1446.37 843.376 1446.97 840.316 C 1450.55 840.208 1448.93 839.752 1451.96 841.879 C 1453.34 847.005 1450.48 847.016 1452.04 853.527 C 1448.83 851.398 1445.56 849.364 1442.22 847.428 z"/>
<path transform="translate(0,0)" fill="rgb(237,16,0)" d="M 1336.38 927.317 C 1415.35 920.321 1429.94 1026.97 1397.05 1078.9 C 1386.76 1095.17 1371.65 1103.44 1353.06 1107.04 C 1310.66 1112.43 1282.81 1082.25 1276.98 1042.43 C 1269.94 994.304 1280.05 936.143 1336.38 927.317 z"/>
<path transform="translate(0,0)" fill="rgb(254,254,254)" d="M 2003.34 1142.86 C 1995.26 1131.71 1987.81 1122.11 1981.27 1109.83 C 1959.82 1069.56 1956.07 1024.28 1962.39 980.027 C 1977.78 872.245 2074.65 806.701 2180.67 825.135 C 2226.63 833.126 2266.69 854.971 2294.3 893.626 C 2327.76 940.856 2330.54 998.016 2323.82 1053.54 L 2087.9 1053.62 C 2089.7 1058.21 2091.68 1063.7 2093.98 1068 C 2131.34 1137.91 2227.71 1118.45 2287.39 1094.57 L 2299.19 1089.82 L 2299.17 1185.64 C 2240.31 1215.53 2154.76 1220.8 2091.94 1200.05 C 2063 1190.49 2041.73 1178.12 2018.93 1158.46 C 2016.38 1157.99 2014.79 1157.34 2012.57 1158.53 L 2013.02 1162.29 L 2010.95 1163.37 L 2010.24 1162.86 C 1994.93 1151.79 2005.89 1158.05 2003.34 1142.86 z"/>
<path transform="translate(0,0)" fill="rgb(237,16,0)" d="M 2003.34 1142.86 C 2008.32 1147.88 2013.82 1153.7 2018.93 1158.46 C 2016.38 1157.99 2014.79 1157.34 2012.57 1158.53 L 2013.02 1162.29 L 2010.95 1163.37 L 2010.24 1162.86 C 1994.93 1151.79 2005.89 1158.05 2003.34 1142.86 z"/>
<path transform="translate(0,0)" fill="rgb(237,16,0)" d="M 2139.81 917.238 C 2178.26 913.024 2202.84 938.481 2208.74 974.705 L 2156.12 974.753 L 2086.1 974.786 C 2092.6 944.764 2108.58 922.74 2139.81 917.238 z"/>
  </svg>
</svg>
