<svg xmlns="http://www.w3.org/2000/svg" xmlns:xlink="http://www.w3.org/1999/xlink" viewBox="0 0 300 380" width="300" height="380">
  <rect width="300" height="380" fill="#fbe18a"/>
  <svg x="34" y="46" width="232" height="288" viewBox="105 540 1044 175" preserveAspectRatio="xMidYMid meet">
<g transform="translate(-1.4925573,68.330061)">
<path fill="#0c0c5b" opacity="1" stroke="none" d="m 208.26337,570.88953 c -0.68717,21.76831 -12.8528,38.81982 -31.74074,44.93212 -19.66051,6.36225 -42.06998,-0.28216 -53.89787,-16.18334 -6.12137,-8.22944 -9.58106,-17.58124 -9.63933,-27.87439 -0.15837,-27.97943 -0.14497,-55.96021 -0.074,-83.94019 0.0202,-7.96964 4.23462,-11.81049 12.24555,-11.7431 7.50592,0.0631 11.6127,4.06759 11.67674,11.88382 0.1196,14.59836 0.0344,29.19839 0.0344,43.74472 4.65179,-2.96344 8.712,-6.49268 13.42885,-8.38684 17.58541,-7.06177 39.15994,0.63537 49.79347,17.24566 5.83151,9.10919 8.46403,19.09156 8.17299,30.32154 m -63.26621,-22.42969 c -0.89073,0.98846 -1.84842,1.92493 -2.66186,2.97333 -8.25824,10.64404 -7.47301,27.64074 1.9516,37.23468 6.49188,6.60852 14.51423,8.88788 23.35183,5.97253 10.19864,-3.36426 15.33412,-11.13318 16.8739,-21.52173 1.65808,-11.18664 -3.27482,-22.56439 -12.0187,-27.65039 -8.73464,-5.08063 -18.1182,-4.211 -27.49677,2.99158 z" id="path2"></path>
<path fill="#5d8a37" opacity="1" stroke="none" d="m 686.64807,484.07135 c 5.40033,2.50207 7.01929,6.73572 6.99237,11.98804 -0.0565,10.99954 -0.0172,21.99957 -0.0173,32.99945 0,1.24597 -6e-5,2.49194 -6e-5,4.97491 6.62207,-7.54535 14.01153,-10.65918 22.74377,-10.70727 15.25818,-0.084 26.97406,9.68786 29.96002,25.48779 0.92218,4.87988 1.23371,9.92871 1.29731,14.90698 0.17248,13.49774 0.0718,26.99897 0.0598,40.49884 -0.007,7.60938 -3.83343,11.57831 -11.17731,11.64984 -8.08734,0.0787 -12.21893,-3.80676 -12.24719,-11.69537 -0.0471,-13.16638 0.0128,-26.33319 -0.0317,-39.49963 -0.008,-2.49115 -0.0933,-5.01325 -0.48523,-7.46637 -1.41528,-8.85999 -5.41717,-12.76203 -13.09143,-13.01374 -8.34362,-0.27374 -14.63043,4.33881 -16.40673,12.3924 -0.60224,2.73022 -0.61841,5.62414 -0.63044,8.4444 -0.0553,12.99951 0.0361,25.99969 -0.0279,38.99908 -0.0377,7.65173 -4.29077,11.87128 -11.68414,11.85291 -7.85071,-0.0195 -11.95453,-4.07666 -11.9599,-11.99811 -0.024,-35.66651 -0.0197,-71.33301 -0.0118,-106.99948 0.002,-11.01853 5.31195,-15.2034 16.71783,-12.81467 z" id="path3"></path>
<path fill="#0c0c5b" opacity="1" stroke="none" d="m 413.06091,529.05566 c 11.97852,-7.45636 24.63868,-8.98626 37.83292,-6.10351 19.74008,4.3128 33.40851,22.96515 31.97745,43.17804 -0.5398,7.62439 -4.14566,11.078 -11.86649,11.10217 -15.83307,0.0495 -31.66647,0.0101 -47.49972,0.007 -1.97016,-3.6e-4 -3.94034,-6e-5 -5.91459,-6e-5 0.48807,10.20337 9.22187,18.5636 20.08994,19.70124 8.21155,0.85949 15.84332,-0.60614 22.97031,-5.01941 5.50244,-3.40735 10.22912,-2.16077 13.77398,3.08062 3.27521,4.84266 2.47754,10.6413 -2.46475,14.09668 -19.28467,13.48292 -59.8573,15.64722 -75.31393,-18.06878 -9.83677,-21.45722 -3.04215,-47.12366 16.41488,-61.97431 m 6.4314,25.13825 c -0.59467,1.61615 -1.18933,3.23236 -1.88971,5.1358 14.33801,0 27.92395,0 41.52158,0 -0.36875,-7.25842 -4.24109,-12.72247 -10.83173,-15.55157 -10.5155,-4.51392 -21.86438,-0.61878 -28.80014,10.41577 z" id="path4"></path>
<path fill="#0c0c5b" opacity="1" stroke="none" d="m 286.88068,600.93384 c -5.50953,0.62976 -7.02469,3.34479 -6.65867,8.4682 0.35053,4.90655 0.0778,10.09625 -1.1712,14.83179 -3.20633,12.15704 -16.61594,19.46557 -28.75865,16.27996 -6.05174,-1.58758 -8.78339,-5.13555 -8.57547,-11.13769 0.20969,-6.05322 2.47046,-8.61688 9.0612,-9.73041 4.10227,-0.69318 6.26151,-2.72723 6.13651,-7.01526 -0.087,-2.9859 -0.0167,-5.97644 -0.0167,-9.1709 -1.49084,-0.56628 -2.85981,-1.10565 -4.24211,-1.6084 -19.39552,-7.05456 -31.31636,-23.26129 -32.08185,-43.93792 -0.26498,-7.15753 -0.21606,-14.33338 -0.0917,-21.49707 0.14291,-8.23004 4.03107,-11.89124 12.11842,-11.76624 7.65508,0.11829 11.49253,4.00598 11.59015,11.87372 0.0786,6.33228 -0.17688,12.67633 0.11429,18.99683 0.70587,15.32251 10.71877,25.6701 24.49628,25.61401 11.82382,-0.0481 21.65463,-8.34131 23.1839,-20.64539 0.96029,-7.7265 0.54483,-15.62719 0.69244,-23.45068 0.18857,-9.9953 7.45416,-15.10602 16.94043,-11.77478 3.95569,1.38904 6.78143,4.32983 6.7699,8.46918 -0.0315,11.29382 0.59894,22.78302 -1.22736,33.83215 -2.65069,16.03723 -12.57403,27.22052 -28.27981,33.3689 z" id="path5"></path>
<path fill="#5d8a37" opacity="1" stroke="none" d="m 913.19745,522.19641 c 22.13916,-0.006 37.1546,9.8158 44.95593,29.08582 7.42371,18.33703 3.32037,40.56079 -10.62933,53.65594 -14.34217,13.4635 -31.50855,15.33276 -49.32447,8.97894 -17.36554,-6.19305 -26.21264,-19.76654 -28.16827,-37.79522 -0.99737,-9.19538 -0.084,-18.28125 3.8233,-26.87012 7.60706,-16.72125 20.70923,-25.51508 39.34284,-27.05536 m 0.651,21.92139 c -9.46808,1.13666 -16.07556,6.53235 -18.26227,15.40381 -1.56872,6.36432 -1.63165,13.5747 -0.41229,20.039 1.78577,9.4671 9.86926,15.3374 18.8612,15.70965 10.25922,0.42475 18.11445,-4.68292 21.67951,-14.26532 2.3916,-6.42828 2.54468,-13.00946 0.88086,-19.65057 -2.81165,-11.22321 -10.26074,-17.1095 -22.74701,-17.23657 z" id="path6"></path>
<path fill="#5d8a37" opacity="1" stroke="none" d="m 831.9967,612.04224 c -23.08032,10.58441 -48.27935,4.19775 -60.53412,-15.09912 -13.10705,-20.63868 -9.36676,-49.39179 9.03919,-64.50647 14.43329,-11.8523 30.99676,-13.31549 47.99213,-6.50745 15.83355,6.34253 23.781,19.38391 26.37371,35.6123 2.47693,15.50367 -0.56628,29.94806 -11.60644,41.77326 -3.12122,3.34314 -7.25671,5.73932 -11.26447,8.72748 m -13.5913,-66.25299 c -14.3061,-4.84424 -27.05536,1.96295 -29.81415,16.75207 -1.03229,5.534 -0.69812,11.73212 0.67724,17.2096 2.03565,8.10669 7.79102,13.51177 16.30695,15.07458 8.37921,1.53772 15.54376,-0.90979 20.88965,-7.69195 10.04962,-12.74952 5.71002,-35.23517 -8.05969,-41.3443 z" id="path7"></path>
<path fill="#5d8a37" opacity="1" stroke="none" d="m 524.48132,616.45093 c -8.85254,-1.00452 -16.68704,-3.53351 -23.62826,-8.49488 -3.19773,-2.28564 -5.15924,-5.26178 -4.54413,-9.34655 0.67499,-4.48273 3.25992,-8.09961 7.45389,-9.17707 2.60217,-0.66857 6.28882,0.2121 8.63855,1.7212 7.84399,5.03765 16.09399,7.44854 25.07544,4.61047 2.31909,-0.73279 5.12152,-3.80823 5.39038,-6.08106 0.27557,-2.32965 -1.79798,-5.49878 -3.7417,-7.3645 -1.78162,-1.71014 -4.703,-2.36316 -7.22821,-3.13531 -3.17389,-0.97071 -6.53711,-1.34992 -9.67023,-2.41931 -3.9173,-1.33692 -7.83734,-2.82636 -11.4852,-4.76099 -9.62842,-5.10639 -14.18817,-13.24127 -13.47186,-24.17975 0.69095,-10.55133 6.34915,-17.81512 15.75265,-21.88116 15.24512,-6.59192 30.05536,-4.58118 43.86347,4.08892 7.05676,4.43091 6.64661,12.65735 -0.15454,17.2132 -3.39441,2.2738 -6.34595,1.34442 -9.81879,-0.0987 -5.28711,-2.19721 -10.83551,-3.88977 -16.41333,-5.19861 -2.05273,-0.48163 -4.66943,0.35357 -6.74054,1.25256 -5.05121,2.19263 -5.89233,8.54218 -1.40247,11.71686 2.63868,1.86578 5.93769,2.88592 9.04804,3.97803 6.42609,2.25634 13.17914,3.75 19.33661,6.56555 10.47583,4.7904 15.31647,13.54809 14.60235,25.01092 -0.72485,11.63355 -6.64544,20.17554 -17.81457,23.40039 -7.18659,2.07489 -15.04279,1.83087 -23.04755,2.57984 z" id="path8"></path>
<path fill="#0c0c5b" opacity="1" stroke="none" d="m 331.95679,597.04346 c -0.73651,-4.64801 -1.88715,-8.90808 -1.91974,-13.1767 -0.18411,-24.14459 -0.13657,-48.29126 -0.0889,-72.43707 0.0178,-9.01667 4.44089,-13.03607 13.46344,-12.52793 6.29575,0.35459 10.14841,4.10501 10.5387,10.4065 0.1542,2.48947 0.0749,4.99392 0.0862,7.49161 0.0111,2.46539 0.002,4.9309 0.002,7.90838 7.37769,0 14.33087,-0.0607 21.2825,0.0175 6.63251,0.0746 9.18057,2.94323 9.25571,10.16846 0.0759,7.3031 -2.79379,10.86242 -9.22614,10.99993 -6.94149,0.14844 -13.88861,0.0335 -21.07013,0.0335 0,13.47174 -0.56613,26.43707 0.19098,39.32471 0.54123,9.21246 7.24045,12.60071 17.17041,10.10602 8.72196,-2.19123 13.99262,1.98529 13.85785,10.87072 -0.0713,4.7002 -2.923,7.15863 -6.73968,9.0047 -17.54584,8.48682 -39.31574,0.19397 -46.80368,-18.1903 z" id="path9"></path>
<path fill="#5d8a37" opacity="1" stroke="none" d="m 586.20471,541.19373 c 13.58008,-18.68616 37.80591,-24.50702 58.09033,-14.15436 1.91449,0.97711 3.76978,2.15655 5.44477,3.50091 5.34924,4.29322 6.28808,9.29773 2.86126,14.38318 -3.84863,5.71149 -8.12036,6.54761 -14.52227,2.84247 -12.25116,-7.09045 -26.38349,-4.10168 -32.84674,6.94653 -7.53498,12.88019 -3.85584,31.13422 7.84661,37.69605 8.1297,4.55853 16.36658,3.54254 24.29255,-0.79212 7.39398,-4.04382 11.94268,-3.28692 15.71936,2.87311 3.64074,5.93866 1.89898,11.76105 -5.21772,15.77411 -15.48303,8.7309 -31.60528,9.6178 -47.20849,1.13751 -15.50074,-8.42468 -22.42975,-22.54565 -22.75275,-40.04199 -0.19855,-10.75604 2.02997,-20.82373 8.29309,-30.1654 z" id="path10"></path>
<path fill="#5d8a37" opacity="1" stroke="none" d="m 1002.0483,496.23321 c 0.013,28.28455 0.01,56.09882 0.059,83.91303 0,2.48096 0.2094,4.98914 0.6153,7.43585 0.7461,4.4986 3.489,6.92993 8.0771,7.45746 6.1656,0.70898 8.8833,3.98602 8.8754,10.39679 -0.01,5.72931 -3.6539,9.92743 -9.1964,10.58673 -12.97067,1.54303 -25.28689,-5.64734 -29.66567,-17.94476 -1.58795,-4.45966 -2.53369,-9.39234 -2.573,-14.1192 -0.24329,-29.31128 -0.16431,-58.62537 -0.14746,-87.93857 0.004,-7.82654 4.41217,-12.5506 11.64838,-12.70502 7.59008,-0.16196 11.96705,4.26605 12.30745,12.91769 z" id="path11"></path>
<path fill="#bd5d11" opacity="1" stroke="none" d="m 1122.0588,577.63745 c 2.9009,-20.63 2.8338,-40.74139 -4.171,-60.11603 -2.6704,-7.38626 -7.043,-14.26043 -11.3259,-20.92718 -3.323,-5.17243 -3.8958,-9.42667 -0.1596,-12.89377 3.5942,-3.33542 9.9946,-3.53506 13.5927,0.42453 3.8817,4.27154 7.8293,8.86783 10.245,14.02637 19.5028,41.6466 19.0854,82.6336 -5.2395,122.44616 -1.682,2.75299 -4.2044,5.21131 -6.837,7.11261 -3.7615,2.71643 -9.615,1.89698 -12.4338,-1.11261 -2.887,-3.08252 -2.9948,-7.63806 0.1634,-11.84442 8.2485,-10.9859 13.7982,-23.11157 16.1657,-37.11566 z" id="path12"></path>
<path fill="#bd5d11" opacity="1" stroke="none" d="m 1069.1074,482.90842 c 5.8899,-2.41025 10.2586,-1.7172 12.8429,2.05954 3.026,4.42212 1.6931,8.29998 -1.4339,12.25463 -9.2441,11.69037 -14.0492,25.31049 -15.7716,39.91901 -2.5085,21.27277 -1.6246,42.30371 7.4866,62.17688 2.4089,5.25427 5.7546,10.10468 8.9161,14.98114 3.205,4.94379 3.3615,9.54889 0.025,12.70667 -3.4865,3.30011 -9.7738,3.29058 -13.5069,-0.86298 -3.7458,-4.16785 -7.3624,-8.73181 -9.8383,-13.7168 -20.1554,-40.57977 -19.5346,-80.74536 3.3609,-120.14526 1.968,-3.3866 5.0435,-6.12964 7.9187,-9.37283 z" id="path13"></path>
</g>
  </svg>
</svg>
