<svg xmlns="http://www.w3.org/2000/svg" xmlns:xlink="http://www.w3.org/1999/xlink" viewBox="0 0 300 380" width="300" height="380">
  <rect width="300" height="380" fill="#ffffff"/>
  <svg x="34" y="46" width="232" height="288" viewBox="0 0 2048 1719" preserveAspectRatio="xMidYMid meet">
<path transform="translate(0,0)" fill="rgb(0,22,168)" d="M 316.961 0 L 1687.97 0 L 1688.01 1370.6 C 1668.19 1369.58 1641.77 1370.4 1621.34 1370.4 L 1491.66 1370.39 L 1095.99 1370.4 L 582.244 1370.39 L 411.334 1370.36 C 380.795 1370.36 347.212 1369.71 316.943 1370.63 L 316.961 0 z M 509.015 191.913 L 509.018 1179 L 1483.75 1178.94 L 1496.02 1178.97 L 1496.02 191.451 L 524.48 191.48 L 509.015 191.913 z"/>
<path transform="translate(0,0)" fill="rgb(0,22,168)" d="M 1139.54 328.939 L 1386.83 328.915 C 1329.96 409.34 1268.1 491.515 1209.74 571.309 L 865.737 1041.96 C 785.308 1043.58 699.27 1042.02 618.384 1042.02 C 634.158 1017.9 659.828 985.052 677.303 961.137 L 795.219 799.872 L 1139.54 328.939 z"/>
<path transform="translate(0,0)" fill="rgb(0,22,168)" d="M 1.08796 1511.87 C 14.1422 1511.41 30.6651 1512.36 43.2392 1511.65 C 112.094 1507.74 174.254 1525.45 176.049 1606.36 C 176.736 1637.35 173.479 1663.87 150.691 1688.02 C 113.688 1721.44 49.2988 1712.84 1.07219 1713.6 L 1.08796 1511.87 z M 41.0052 1682.88 C 69.5821 1682.91 96.075 1685.72 118.591 1665.58 C 122.755 1660.5 127.295 1654.4 129.458 1648.08 C 139.056 1620.07 139.01 1577.45 113.999 1557.07 C 93.628 1540.47 65.7839 1541.81 40.9888 1541.99 L 41.0052 1682.88 z"/>
<path transform="translate(0,0)" fill="rgb(0,22,168)" d="M 1383.24 1512.48 C 1418.08 1512.52 1505.6 1502.01 1522.6 1542.5 C 1536.1 1574.66 1520.24 1595.71 1490.41 1609.11 C 1491.62 1609.42 1492.82 1609.75 1494.02 1610.12 C 1527.73 1620.09 1542.07 1642.28 1531.33 1677 C 1528.66 1683.33 1524.8 1689.08 1519.96 1693.95 C 1498.01 1715.82 1457.31 1713.34 1428.21 1713.3 L 1377.05 1713.16 L 1377.02 1557.73 C 1377.02 1551.98 1376.08 1515.61 1378.42 1512.85 L 1383.24 1512.48 z M 1485.01 1675.71 C 1491.07 1668.64 1495.02 1660.68 1494.14 1651.02 C 1493.39 1643.44 1489.57 1636.5 1483.58 1631.8 C 1469.78 1621.1 1433.89 1623.89 1415.3 1623.88 C 1415.25 1642.74 1414.67 1665.78 1415.61 1684.24 C 1438.71 1682.1 1467.23 1687.99 1485.01 1675.71 z M 1415.2 1594.67 C 1433.92 1594.56 1465.71 1598.02 1479.78 1587.32 C 1494.94 1569.12 1485.44 1546.18 1462.41 1542.78 C 1447.33 1540.55 1430.66 1542.3 1415.3 1541.85 L 1415.2 1594.67 z"/>
<path transform="translate(0,0)" fill="rgb(0,22,168)" d="M 1607.39 1571.2 C 1635.05 1568.34 1682.1 1570.94 1689.59 1604.54 C 1691.31 1612.26 1690.19 1633.42 1690.15 1642.39 L 1690.23 1713.17 L 1657.37 1713.14 L 1655.91 1693.84 C 1636.52 1723.75 1592.45 1726.47 1568.08 1701.57 C 1562.75 1693.82 1559.52 1686 1559.26 1676.5 C 1557.84 1623.1 1616.94 1625.01 1654.08 1623.94 C 1654.16 1614.65 1654.64 1607.53 1648.5 1599.6 C 1640.02 1588.65 1621.48 1586.7 1610.77 1595.45 C 1603.96 1601.01 1603.13 1605.72 1602.46 1613.9 L 1565.28 1613.97 C 1566.98 1585.11 1581.68 1576.48 1607.39 1571.2 z M 1618.66 1693.61 C 1651.21 1692.28 1654.86 1672.78 1654.06 1645 C 1650.55 1645.01 1638.24 1644.87 1635.54 1645.44 C 1623.59 1646.18 1609.75 1647.41 1602.06 1657.65 C 1588.7 1675.44 1600.11 1689.59 1618.66 1693.61 z"/>
<path transform="translate(0,0)" fill="rgb(0,22,168)" d="M 260.678 1569.35 C 279.73 1566.47 304.446 1572.87 318.021 1587.06 C 335.391 1605.22 338.11 1627.52 337.957 1651.45 L 235.651 1651.54 C 235.874 1661.41 236.757 1670.33 241.989 1678.96 C 246.433 1686.4 253.788 1691.64 262.272 1693.41 C 282.106 1697.63 294.294 1685.75 298.104 1667.33 L 313.75 1667.14 L 334.435 1667.19 C 332.325 1695.97 315.862 1710.97 287.799 1715.33 C 266.687 1718.62 243.097 1718.14 225.058 1705.28 C 192.795 1682.26 189.311 1625.47 211.705 1594.71 C 224.148 1577.65 240.501 1572.3 260.678 1569.35 z M 277.25 1628.75 L 298.18 1628.62 C 295.698 1602.87 288.048 1590.88 259.894 1593.17 C 242.069 1601.43 239.646 1610.64 236.604 1628.74 L 277.25 1628.75 z"/>
<path transform="translate(0,0)" fill="rgb(0,22,168)" d="M 1182.71 1569.31 C 1238.46 1566.6 1261.54 1598.21 1259.85 1651.51 C 1229.06 1650.88 1188.35 1650.64 1157.81 1651.74 C 1158.04 1658.34 1158.75 1668.55 1161.84 1674.29 C 1178 1704.27 1212.66 1700.37 1220.58 1667.24 L 1237.5 1667.12 L 1256.87 1667.16 C 1253.37 1696.5 1241.97 1708.05 1211.65 1715.1 C 1134.15 1733.14 1097.24 1657.34 1133.31 1595.58 C 1143.03 1578.93 1163.36 1572.39 1182.71 1569.31 z M 1199.25 1628.75 L 1220.05 1628.69 C 1219.52 1604.63 1209.97 1591.24 1184.05 1593.13 L 1182.37 1593.25 C 1164.37 1600.89 1161.74 1611.1 1159.13 1628.73 L 1199.25 1628.75 z"/>
<path transform="translate(0,0)" fill="rgb(0,22,168)" d="M 955.668 1512.52 L 994.052 1512.28 C 994.426 1539.25 994.524 1569.21 993.943 1596.09 C 1004.99 1578.86 1017.21 1570.78 1038.12 1570.66 C 1052.6 1570.59 1065.67 1574.23 1076.12 1584.71 C 1082.41 1591.09 1086.77 1599.11 1088.7 1607.86 C 1091.1 1618.35 1090.32 1641 1090.28 1652.56 L 1090.19 1713.62 C 1078.44 1713.06 1063.94 1713.36 1051.98 1713.28 L 1052 1657.5 C 1052.2 1636.79 1057.34 1597.74 1027.76 1596.23 C 1018.94 1595.8 1010.34 1599.02 1003.97 1605.13 C 988.267 1620.39 993.807 1689.81 993.901 1713.36 L 955.552 1713.55 L 955.571 1598.4 C 955.583 1570.15 955.086 1540.67 955.668 1512.52 z"/>
<path transform="translate(0,0)" fill="rgb(0,22,168)" d="M 1804.07 1571.22 C 1818.33 1569.73 1833.55 1570.44 1845.55 1579.19 C 1867.36 1595.07 1862.88 1627.23 1862.82 1651.27 C 1862.71 1671.98 1862.75 1692.69 1862.92 1713.39 L 1823.96 1713.43 L 1824.09 1655.17 C 1824.12 1644.14 1824.39 1633.37 1823.56 1622.34 C 1821.6 1596.2 1796.17 1588.73 1776.48 1604.4 C 1763.18 1619.06 1766.03 1643.05 1766.12 1661.71 L 1766.39 1713.4 L 1727.96 1713.45 L 1727.98 1573.94 L 1766.7 1573.93 L 1766.85 1595 C 1776.88 1580.25 1787.13 1574.84 1804.07 1571.22 z"/>
<path transform="translate(0,0)" fill="rgb(0,22,168)" d="M 366.803 1573.98 L 405.578 1573.94 C 405.151 1597.75 405.46 1622.06 405.26 1645.83 C 405.156 1658.13 403.941 1676.73 413.986 1685.23 C 423.786 1693.53 443.015 1693.28 452.204 1683.83 C 461.159 1675.17 463.055 1662.7 463.074 1650.88 C 463.116 1625.25 462.999 1599.59 462.927 1573.96 L 501.059 1573.96 L 501.119 1619.5 L 501.085 1713.28 L 463.027 1713.42 C 463.009 1706.23 462.905 1699.04 462.716 1691.85 C 444.262 1731.68 375.278 1725.01 368.437 1679.97 C 366.21 1665.31 366.847 1651.45 366.885 1636.73 C 367.051 1615.81 367.024 1594.9 366.803 1573.98 z"/>
<path transform="translate(0,0)" fill="rgb(0,22,168)" d="M 706.735 1569.43 C 719.003 1567.75 742.714 1571.32 752.619 1579.85 C 764.645 1590.2 765.481 1597.6 767.171 1611.99 L 731.541 1612.1 C 730.188 1606.13 729.324 1601.84 724.376 1597.71 C 714.314 1589.33 695.661 1591.14 687.309 1601.14 C 685.823 1602.92 683.279 1608.08 684.237 1610.16 C 692.071 1627.15 724.42 1625.87 740.131 1632.68 C 747.477 1635.07 754.404 1637.94 760.433 1642.99 C 776.125 1656.11 776.903 1683.13 763.108 1698.03 C 747.947 1714.4 725.828 1716.62 704.771 1717.81 C 671.572 1714.32 645.389 1710.56 645.153 1670.38 L 682.495 1670.22 C 683.516 1676.93 684.459 1681.97 689.923 1686.74 C 698.402 1695.88 725.524 1694.75 732.479 1683.71 C 744.311 1664.93 717.928 1657.87 705.89 1655.83 C 689.966 1653.14 674.73 1649.2 662.12 1640.68 C 646.411 1630.29 641.764 1605.23 654.204 1590.55 C 667.736 1574.58 687.362 1571.38 706.735 1569.43 z"/>
<path transform="translate(0,0)" fill="rgb(0,22,168)" d="M 852.645 1569.25 C 892.064 1567.26 922.609 1577.16 926.429 1620.8 L 888.366 1620.7 C 886.094 1596.69 871.338 1585.77 847.425 1596.47 C 841.358 1599.19 835.715 1609.3 834.082 1615.93 C 828.335 1637.47 828.035 1686.41 856.24 1692.95 C 876.712 1697.69 885.677 1684.54 889.214 1667.23 L 889.659 1664.68 C 894.7 1662.28 919.416 1663.21 926.341 1663.26 C 924.723 1691.14 911.468 1709.1 882.419 1715.15 C 862.801 1719.24 837.353 1717.26 820.309 1705.62 C 782.185 1679.58 783.011 1599.95 825.53 1577.86 C 835.264 1572.76 842.017 1571.23 852.645 1569.25 z"/>
<path transform="translate(0,0)" fill="rgb(0,22,168)" d="M 586.118 1533.85 C 589.263 1535.2 588 1569.7 587.984 1575.07 L 623.654 1575.01 C 623.8 1583.82 623.672 1593.03 623.674 1601.88 L 587.891 1601.92 L 587.881 1649.65 C 587.869 1679.09 586.232 1697.7 623.97 1689.64 L 623.992 1713.61 C 614.528 1714.62 608.358 1715.88 598.2 1716.57 C 596.409 1716.6 594.617 1716.62 592.826 1716.62 C 547.684 1716.73 550.583 1688.29 550.818 1653.47 C 550.933 1636.49 550.886 1618.87 550.931 1601.85 L 520.999 1601.92 L 521.028 1575.1 L 550.903 1575.11 L 550.905 1552.59 C 562.315 1546.22 574.529 1539.99 586.118 1533.85 z"/>
<path transform="translate(0,0)" fill="rgb(0,22,168)" d="M 1900.69 1512.51 L 1938.01 1512.27 L 1938.16 1713.36 C 1925.46 1713.3 1912.75 1713.37 1900.05 1713.55 L 1900.15 1577.72 C 1900.14 1562.59 1899.01 1525.35 1900.69 1512.51 z"/>
<path transform="translate(0,0)" fill="rgb(0,22,168)" d="M 1992.04 1573.96 L 2037.72 1573.95 C 2022.32 1591.87 1999.58 1614.55 1982.69 1631.98 C 1989.83 1641.18 2045.83 1709.57 2046.47 1713.56 C 2030.21 1713.63 2013.95 1713.55 1997.69 1713.33 C 1978.25 1686.66 1958.65 1660.1 1938.9 1633.66 L 1992.04 1573.96 z"/>
  </svg>
</svg>
