<svg xmlns="http://www.w3.org/2000/svg" xmlns:xlink="http://www.w3.org/1999/xlink" viewBox="0 0 300 380" width="300" height="380">
  <rect width="300" height="380" fill="#ffffff"/>
  <svg x="34" y="46" width="232" height="288" viewBox="0 0 8333.33 8333.33" preserveAspectRatio="xMidYMid meet">
<defs> <style type="text/css"> <![CDATA[ .fil0 {fill:none} .fil2 {fill:#00A0DD;fill-rule:nonzero} .fil1 {fill:#51B848;fill-rule:nonzero} ]]> </style> </defs> <g id="Layer_x0020_1"> <metadata id="CorelCorpID_0Corel-Layer"></metadata> <rect class="fil0" width="8333.33" height="8333.33"></rect> <g id="_2716848350352"> <g> <path class="fil1" d="M2172.31 3413.06c7.15,-10.04 20.36,-5.36 30.61,-6.6 63.14,0.69 126.35,-0.41 189.49,0.62 11.83,14.72 35.43,-1.65 47.6,12.66 7.02,0.48 14.1,0.89 21.18,1.37 8.87,9.7 23.94,3.24 33.84,11.28 7.63,0.76 14.51,3.3 20.63,7.7 3.57,0.55 10.73,1.52 14.31,2 11.14,5.91 23.45,9.08 34.87,14.51 16.37,6.26 32.81,12.31 48.15,20.77 17.06,7.43 32.26,18.16 48.22,27.58 65.89,37.48 124.08,85.97 176.35,140.58 35.08,45.74 74.28,89.56 99.39,142.1 4.4,9.22 9.01,18.36 13.76,27.51 4.47,9.22 9.01,18.43 13.62,27.58 1.86,3.37 5.57,10.18 7.5,13.55 4.95,11.56 8.32,23.87 14.24,35.01 0.48,3.57 1.44,10.73 2,14.31 4.33,6.12 6.88,13 7.7,20.7 3.44,6.4 5.71,13.28 6.81,20.63 6.6,7.63 4.61,18.22 6.26,27.44 9.22,9.01 4.61,22.97 6.54,34.39 15.2,14.38 -3.17,40.44 12.59,54.48 0.89,28.75 0.2,57.5 0.41,86.25 -495.22,0 -990.44,0 -1485.65,0 0.89,-26.48 -1.86,-53.24 1.17,-79.58l5.3 -6.12c2.61,-15.75 -5.3,-35.35 6.54,-48.14 2.06,-11.42 -3.09,-25.86 6.94,-34.39 0.48,-7.08 0.89,-14.1 1.38,-21.18 9.7,-8.87 3.23,-23.94 11.28,-33.77 1.17,-7.29 3.44,-14.24 6.81,-20.7 1.1,-7.22 3.44,-13.96 7.02,-20.29 8.74,-20.77 15.54,-42.37 27.31,-61.77 1.72,-3.44 5.16,-10.31 6.88,-13.75 8.25,-20.16 20.08,-38.24 31.43,-56.61 18.43,-33.22 41.96,-63.69 68.3,-90.93 14.79,-25.45 38.86,-43.33 58.53,-64.79 41.61,-32.19 81.78,-67.06 128.28,-92.51 15.96,-9.43 31.09,-20.15 48.21,-27.58 15.34,-8.46 31.78,-14.51 48.15,-20.7 11.35,-5.5 23.73,-8.6 34.87,-14.58 3.57,-0.48 10.73,-1.44 14.3,-2 6.12,-4.4 13,-6.94 20.7,-7.63 9.77,-8.05 24.48,-1.99 33.77,-10.94 9.22,-1.99 20.98,1.38 27.51,-7.5 11.62,-0.41 23.25,-0.55 34.94,-0.96l0 0zm61.35 344.8c-9.97,13.14 -30.26,0 -40.72,12.45 -3.58,0.48 -10.73,1.44 -14.31,1.93 -8.25,4.88 -17.74,7.08 -26.62,10.52 -39.13,15.27 -69.26,44.5 -102.35,68.85 -18.98,26.76 -42.16,51.31 -54.89,82.06 -3.37,6.33 -6.88,12.59 -10.45,18.85 -4.95,11.62 -8.26,23.87 -14.17,35.08 -0.48,3.57 -1.44,10.73 -1.93,14.3 -10.73,10.8 -4.26,27.65 -6.6,41.2 -2,4.2 -6.06,12.59 -8.05,16.78 220.99,0.69 441.98,-0.41 662.97,0.55 -15.13,-14.03 -0.62,-37.28 -13.55,-51.59 -1.58,-9.28 0.34,-19.88 -6.19,-27.51 -1.38,-7.15 -3.51,-13.96 -6.54,-20.5 -3.78,-7.22 -7.43,-14.58 -10.94,-21.94 -13.48,-34.87 -41.41,-60.11 -61.28,-90.72 -19.6,-9.29 -31.78,-28.48 -51.17,-37.62 -11.9,-6.12 -22.69,-14.03 -33.91,-21.26 -11.76,-3.71 -23.52,-7.63 -34.6,-12.93 -7.63,-6.6 -18.09,-4.81 -27.24,-6.26 -7.08,-7.91 -18.3,-5.09 -27.51,-6.81l-6.12 -4.61c-34.39,-2.96 -69.33,-0.76 -103.86,-0.83z"></path> </g> <path class="fil2" d="M820.51 3721.61c29.09,-63.56 94.57,-110.46 165.28,-111.15 223.67,-0.48 447.28,0.2 670.95,-0.35 -142.51,146.37 -289.08,288.88 -432.56,434.35 -46.7,51.38 -60.25,130.34 -31.91,194.03 17.06,43.74 55.43,72.84 86.94,105.78 125.59,126.63 253.25,251.11 377.53,378.98 -223.67,-0.62 -447.34,0.2 -671.02,-0.41 -70.7,-0.83 -136.05,-47.53 -165.21,-111.01l0 -890.22z"></path> <g> <path class="fil2" d="M2914.93 3610.19c1477.74,0.28 2955.42,0.07 4433.09,0.07 67.82,-1.58 131.17,39.34 164.8,96.98l0 918.83c-33.63,57.85 -97.19,98.56 -165.07,96.98 -1477.6,0.07 -2955.21,-0.14 -4432.81,0.14 127.86,-131.03 258.27,-259.51 387.44,-389.16 27.24,-27.99 59.09,-53.44 74.83,-90.24 31.43,-66.03 18.23,-150.63 -33.22,-202.83 -143.13,-143.47 -286.88,-286.4 -429.05,-430.77l0 0zm1976.33 250.7c-0.28,137.35 0,274.7 -0.2,412.06 -2.34,34.87 24.48,67.2 57.64,75.31 25.86,3.23 52.07,0.83 78.13,1.58 0,-16.44 0,-32.88 0.07,-49.31 -27.72,-5.16 -75.04,15.13 -86.39,-20.63 -1.79,-139.56 0.14,-279.18 -0.89,-418.73 -16.17,0.2 -32.33,0.27 -48.35,-0.28l0 0zm626.52 0.07c-0.14,137.42 -0.07,274.78 -0.07,412.2 -1.79,40.65 35.01,79.03 76.14,76.62 44.16,0.14 88.38,-0.27 132.61,0.14 -0.2,-16.51 -0.2,-32.95 -0.2,-49.39 -44.3,-0.14 -88.52,0.41 -132.75,-0.07 -14.1,1.38 -27.17,-12.59 -26.69,-26.27 -0.2,-80.47 -0.28,-160.94 0.14,-241.35 53.1,-0.14 106.2,-0.07 159.3,0 0,-16.51 0,-32.94 0.2,-49.38 -53.17,0.27 -106.26,0.14 -159.3,0.2 -0.89,-40.93 -0.2,-81.85 -0.48,-122.7 -16.37,0.48 -32.67,0.48 -48.9,0l0 0zm264.87 -0.14c-0.48,16.51 -0.69,33.02 -0.76,49.52 16.23,0 32.46,0 48.77,0.14 -0.21,-16.51 -0.35,-33.08 -0.55,-49.52 -15.89,0.48 -31.71,0.41 -47.46,-0.14l0 0zm-2200.21 199.33c0.28,73.11 -0.2,146.3 0.2,219.41 0.69,37.07 34.12,70.02 71.26,70.09 100.76,0.28 201.52,0 302.35,0.13 -0.13,-16.44 -0.2,-32.81 -0.13,-49.17 -98.56,-0.07 -197.06,0 -295.55,0 -15.82,2.75 -30.19,-11.63 -29.71,-27.17 -0.82,-27.44 -0.07,-54.96 0.14,-82.47 108.4,0.07 216.8,0 325.19,0.07 -0.69,-45.53 0.83,-91.13 -0.62,-136.59 -1.65,-38.24 -35.7,-72.56 -74.56,-70.84 -75.59,0.07 -151.11,-0.07 -226.7,0.07 -39.89,-0.89 -74.49,36.93 -71.88,76.48l0 0zm443.56 -27.17c-7.77,26.62 -3.65,55.02 -4.19,82.4 -1.38,39.14 32.67,75.31 72.01,75.52 73.66,0.34 147.33,-0.07 221.06,0.13 15.54,-2.33 31.02,10.66 30.88,26.55 0.89,18.71 0.89,37.56 0,56.33 0.28,15.68 -14.79,29.37 -30.54,26.69 -73.87,-0.21 -147.74,0.41 -221.61,-0.35 -15.82,0 -21.19,-16.65 -25.66,-28.82 -15.96,0.14 -31.98,0.14 -47.87,0.34 1.38,37.14 28.27,73.94 66.92,77.45 75.59,1.37 151.32,0 226.98,0.62 29.16,2.13 59.36,-13.48 72.29,-40.1 14.52,-28.27 7.98,-61.49 8.94,-92.03 0.41,-37.14 -29.09,-71.67 -66.44,-75.18 -79.85,-2.06 -159.91,1.1 -239.77,-1.37 -26.96,-10.94 -17.88,-44.64 -19.4,-67.2 -2.13,-16.71 3.99,-40.78 24.63,-41.06 78.2,-0.76 156.54,0.69 234.81,-0.62 9.83,7.29 15.2,18.09 18.91,29.58 16.3,-0.07 32.6,-0.14 48.97,-0.21 -1.65,-37.83 -29.09,-75.52 -68.78,-77.79 -77.93,-0.62 -155.93,-0.07 -233.85,-0.28 -30.26,-0.62 -58.67,20.98 -68.3,49.38l0 0zm483.53 -45.05c-29.51,10.52 -48.7,40.93 -48.56,71.87 -0.28,71.26 -0.35,142.52 0.07,213.77 -1.03,39.75 33.08,76.83 73.46,76.14 75.72,0.07 151.52,0.14 227.25,-0.07 37.48,0.2 71.53,-32.53 72.49,-70.16 0.48,-75.18 0.34,-150.42 0,-225.67 -0.76,-37.55 -34.67,-71.05 -72.43,-70.22 -73.46,-0.14 -146.91,0.2 -220.37,-0.14 -10.73,0.27 -22.01,-0.48 -31.91,4.47l0 0zm574.52 -4.4c0.14,96.64 0,193.2 0,289.84 -1.79,40.72 35.49,78.96 76.62,76.41 73.39,-0.07 146.84,0 220.23,0 40.99,2.27 78.48,-35.7 76.56,-76.55 0,-96.57 -0.14,-193.13 0,-289.7 -16.44,0.07 -32.81,0.07 -49.18,0.14 0.41,96.57 0.55,193.13 -0.07,289.63 1.44,14.65 -12.66,28.89 -27.24,27.24 -73.53,0.14 -147.06,0.14 -220.58,-0.07 -14.58,1.79 -28.61,-12.45 -27.03,-26.89 -0.34,-96.64 -0.07,-193.28 -0.07,-289.98 -16.44,0 -32.88,0 -49.25,-0.07l0 0zm697.64 0.62c0.83,121.74 0.69,243.48 0.14,365.22 16.16,0.34 32.46,0.48 48.76,0.55 -0.34,-122.15 -0.34,-244.31 0,-366.46 -16.37,0 -32.67,0.14 -48.9,0.69l0 0zm185.09 2c-31.09,10.32 -54.06,41.13 -52.48,74.21 -0.2,70.98 -0.27,141.89 0,212.81 -1.79,39.2 32.05,76.35 71.6,76.48 75.59,0.34 151.25,0.07 226.83,0.07 40.58,1.44 76.21,-35.56 74.97,-75.8 0,-71.39 -0.07,-142.86 0.07,-214.25 1.31,-40.1 -33.98,-78 -74.69,-76.07 -82.06,1.72 -164.66,-3.3 -246.3,2.54l0 0zm381.25 -2.68c0,122.15 0,244.31 0,366.46 16.37,-0.14 32.88,-0.14 49.39,-0.14 -0.14,-96.57 -0.21,-193.13 -0.07,-289.7 -1.65,-15.41 12.52,-29.78 28.06,-27.3 73.73,0.07 147.46,-0.14 221.27,0.07 13.96,-1.79 26.34,12.72 26.07,26.07 0.2,96.98 0.07,193.96 0.07,290.94 16.44,-0.07 32.94,-0.14 49.45,-0.07 -0.07,-96.63 0.21,-193.27 -0.07,-289.91 0.55,-40.1 -34.53,-78.62 -75.59,-76.35 -99.53,0.07 -199.05,0.28 -298.58,-0.07l0 0zm441.09 69.81c-0.48,22.97 -0.62,45.94 0.07,68.85 1.1,36.18 34.05,67.41 69.81,68.71 78,1.1 156.2,-1.17 234.2,0.96 23.46,7.3 20.08,34.81 20.08,54.06 -0.07,19.26 3.44,46.63 -19.87,54.06 -75.8,1.58 -151.66,0.28 -227.53,0.62 -17.33,3.03 -27.37,-14.17 -29.78,-28.75 -16.17,-0.2 -32.33,-0.2 -48.43,-0.28 -0.76,39.21 31.09,77.65 71.46,78.07 75.73,0.41 151.52,0.07 227.25,0.14 38.38,1.65 72.49,-31.22 75.45,-68.92 1.24,-23.25 1.24,-46.7 0,-69.95 -2.96,-37.76 -37.07,-69.81 -75.17,-68.85 -73.74,-0.2 -147.4,0.21 -221.13,-0.07 -18.43,2.13 -31.09,-17.2 -28.06,-34.05 1.99,-25.31 -8.32,-57.36 15.13,-75.18 78.07,0.34 156.13,-0.14 234.2,0.14 16.44,-1.72 24.15,15.96 28.06,28.96 16.3,-0.07 32.6,-0.07 49.04,-0.07 -2.2,-37.9 -30.2,-76.48 -70.43,-77.93 -75.66,-0.55 -151.31,0.07 -226.97,-0.28 -39.07,-3.51 -76.9,30.54 -77.38,69.74z"></path> </g> <path class="fil2" d="M3630.87 4060.28c-0.62,-13 9.15,-27.65 23.18,-27.31 78.41,-0.89 156.89,0.69 235.36,-0.76 7.64,7.43 17.61,15 16.99,26.96 1.17,27.44 0.13,55.02 0.13,82.54 -91.82,0.69 -183.64,-0.07 -275.39,0.35 -0.48,-27.24 -1.1,-54.54 -0.28,-81.78z"></path> <path class="fil2" d="M4510.02 4060.21c-1.44,-12.38 8.8,-20.29 16.65,-27.93 80.89,0.83 161.77,0.69 242.72,0.07 7.57,7.7 17.13,15.75 15.75,27.85 0.07,71.12 0.28,142.31 -0.07,213.5 1.1,16.09 -14.17,29.57 -29.92,26.89 -73.8,-0.28 -147.67,0.41 -221.47,-0.35 -14.1,0 -24.49,-14.37 -23.66,-27.79 0,-70.7 0,-141.55 0,-212.26z"></path> <path class="fil2" d="M5978.95 4032.5c78.27,0.76 156.54,-0.07 234.81,0.34 14.1,-0.83 25.38,14.03 24.49,27.51 0.2,70.91 0.2,141.96 0,212.94 0.83,13.62 -10.73,27.51 -24.69,27.1 -73.73,0.41 -147.53,0.07 -221.26,0.21 -15.41,2.41 -29.99,-11.42 -28.61,-26.83 -0.48,-71.26 -0.34,-142.51 -0.07,-213.77 -1.51,-11.97 7.84,-19.88 15.34,-27.51z"></path> <path class="fil2" d="M1544.21 4185.12c136.46,-0.62 272.92,-0.14 409.38,-0.28 -0.14,86.94 34.53,173.6 96.02,235.23 68.85,71.05 171.06,107.71 269.34,96.91 96.02,-8.32 186.33,-62.52 240.39,-142.1 38.1,-55.23 58.87,-122.22 58.26,-189.42 136.39,-1.37 272.85,-0.41 409.24,-0.48 2,161.77 -53.1,323.2 -151.45,451.47 -115.41,151.87 -291.22,256.83 -480.22,283.86 -54.41,9.49 -109.84,5.98 -164.8,5.91 -171.19,-11.9 -337.37,-86.66 -459.87,-206.89 -144.44,-137.22 -227.46,-335.24 -226.29,-534.22z"></path> </g> </g>
  </svg>
</svg>
