<svg version="1.1" xmlns="http://www.w3.org/2000/svg" style="display: block;" viewBox="190 348 1627 323" width="1627" height="323">
<path transform="translate(0,0)" fill="rgb(245,244,243)" d="M 1487.18 462.271 C 1493.13 457.477 1501.03 450.562 1507.8 447.512 C 1569.91 419.525 1602.86 485.12 1586.54 536.145 C 1580.47 555.03 1567.17 570.741 1549.54 579.835 C 1530.18 589.729 1509.96 589.925 1489.6 583.335 L 1489.86 631.77 C 1492.56 646.741 1495.26 643.09 1508.77 646.995 C 1513.15 648.258 1515.53 654.2 1513.57 658.337 C 1512.67 658.442 1511.76 658.518 1510.86 658.566 C 1500.13 659.126 1427.28 660.655 1422.81 656.62 C 1419.69 639.537 1443.19 651.067 1443.84 634.869 C 1444.68 613.879 1444.43 592.855 1444.32 571.85 L 1444.61 485.309 C 1444.56 464.266 1432.36 467.388 1424.4 459.506 C 1423.27 455.965 1423.38 457.489 1424.41 453.509 C 1428.52 450.2 1464.79 443.362 1473.37 441.314 C 1477.09 440.832 1479.58 440.113 1482.83 441.897 C 1488.04 446.837 1486.92 454.669 1487.18 462.271 z M 1489.56 476.383 C 1490.77 505.005 1488.55 536.062 1489.94 563.858 C 1499.03 569.984 1509.32 575.037 1520.42 570.118 C 1554.78 549.571 1550.94 460.84 1510.13 465.107 C 1501.51 468.077 1496.96 470.957 1489.56 476.383 z"/>
<path transform="translate(0,0)" fill="rgb(245,244,243)" d="M 993.486 359.111 C 997.905 358.558 999.284 358.283 1002.5 361.387 C 1003.27 365.611 1002.34 386.129 1002.17 391.913 C 1001.49 415.337 1002.3 440.17 1001 463.397 C 1023.77 448.334 1058.74 427.196 1083.31 450.948 C 1105.86 472.739 1095.01 521.411 1097.5 550.683 C 1100.36 584.457 1115.74 559.674 1123.73 580.537 C 1123.81 580.731 1122.64 584.149 1121.68 584.09 C 1107.75 583.231 1044.42 587.52 1034.65 583.678 L 1033.55 580.089 C 1034.61 571.798 1048.15 569.698 1050.03 564.305 C 1055.05 549.909 1053.94 494.85 1050.85 481.575 C 1040.19 457.256 1017.67 468.357 1001.17 479.586 C 1002.03 500.78 1000.24 542.098 1003.89 563.821 C 1004.51 567.508 1017.35 572.208 1021.59 577.461 C 1022.56 581.251 1022.65 579.674 1021.17 583.398 C 1014.68 586.18 955.293 583.74 943.414 585.02 C 939.678 585.423 935.185 584.011 932.289 580.794 C 931.085 569.748 944.346 571.967 954.217 566.344 C 959.814 540.45 957.497 492.288 957.782 464.733 C 958.025 441.193 959.136 408.176 954.434 385.81 C 948 381.826 943.777 381.67 936.884 378.508 C 934.511 375.414 934.942 376.807 934.904 373.274 C 939.9 364.47 978.138 363.704 993.486 359.111 z"/>
<path transform="translate(0,0)" fill="rgb(245,244,243)" d="M 695.166 359.142 C 696.492 358.993 703.179 358.203 703.157 360.297 C 702.851 389.742 707.203 435.492 702.863 464.061 C 725.018 448.311 756.059 429.589 782.817 448.352 C 800.814 460.973 800.187 488.913 800.079 508.664 L 799.85 542.207 C 799.816 547.753 799.231 557.446 801.336 562.365 C 805.542 572.191 819.946 570.855 825.262 577.511 C 826.11 581.003 826.048 579.549 824.917 583.413 C 821.613 585.261 801.369 585.122 797.223 584.615 C 785.014 583.123 742.628 589.186 736.01 580.538 C 734.503 569.622 749.237 572.412 751.653 565.216 C 756.909 549.559 756.426 491.496 751.72 478.098 C 750.897 476.661 750.03 475.25 749.12 473.866 C 738.755 458.325 714.586 472.048 703.609 479.529 C 706.299 505.708 701.377 535.488 705.247 561.865 C 706.461 570.139 721.283 569.902 723.848 579.806 C 723.398 581.991 723.475 582.863 721.918 584.274 C 713.485 585.553 640.988 585.2 635.11 583.139 C 633.794 580.911 633.959 580.57 634.012 577.867 C 636.973 570.752 649.021 571.741 654.751 567.17 C 657.737 564.789 658.594 562.174 659.035 558.465 C 660.742 544.095 662.109 396.153 657.52 387.991 C 653.5 380.84 642.561 382.53 637.847 376.52 C 636.973 372.382 637.175 373.681 638.462 369.373 C 647.353 365.944 680.197 363.592 695.166 359.142 z"/>
<path transform="translate(0,0)" fill="rgb(245,244,243)" d="M 1191.03 441.213 C 1212.88 439.539 1232.77 440.251 1252.07 452.64 C 1285.42 474.08 1292.64 524.578 1271.43 556.804 C 1259.54 574.872 1242.23 583.066 1221.76 587.213 C 1200.06 589.533 1179.28 588.173 1160.27 576.269 C 1144.9 566.494 1133.96 551.086 1129.81 533.347 C 1123.64 506.419 1131.73 475.655 1153.16 457.536 C 1164.3 448.118 1177.09 444.387 1191.03 441.213 z M 1213.33 572.517 C 1251.77 562.565 1237.74 453.771 1201.1 455.243 C 1193.06 456.918 1187.84 459.042 1183.63 466.521 C 1173.51 484.49 1174 513.534 1178.39 533.017 C 1182.7 552.104 1191.93 570.959 1213.33 572.517 z"/>
<path transform="translate(0,0)" fill="rgb(245,244,243)" d="M 292.209 440.418 C 354.514 439.624 343.789 503.713 343.879 545.394 C 343.889 549.926 345.002 557.779 348.889 560.802 C 356.857 567 363.182 555.996 370.154 563.662 C 372.14 573.509 355.925 582.358 347.895 584.906 C 325.861 591.897 310.693 589.786 302.811 566.934 C 302.083 567.714 301.341 568.48 300.585 569.233 C 280.489 589.205 250.357 597.408 228.382 574.959 C 200.59 523.822 266.619 510.319 301.223 501.371 C 299.147 481.325 300.883 450.602 270.077 456.523 C 265.645 457.577 266.174 468.864 266.006 472.51 C 265.033 493.68 251.722 499.063 232.842 488.924 C 216.068 460.959 251.235 445.558 273.474 441.886 C 279.384 440.91 286.196 440.735 292.209 440.418 z M 268.998 561.873 C 281.651 567.559 294.18 565.085 300.022 552.344 C 302.52 546.898 302.13 519.913 300.652 515.157 C 281.686 521.623 256.151 529.17 264.964 554.611 C 265.789 556.992 267.39 559.923 268.998 561.873 z"/>
<path transform="translate(0,0)" fill="rgb(245,244,243)" d="M 1668.15 441.247 C 1683.58 440.31 1704.14 440.122 1717.25 449.864 C 1729.99 459.332 1736.78 475.422 1739.06 490.706 C 1739.75 495.347 1740.2 500.834 1736.95 504.695 C 1729.36 513.718 1666.51 509.534 1652.23 509.926 C 1654.6 553.898 1676.3 568.648 1717.49 551.6 C 1724.87 548.544 1732.77 538.828 1739.33 544.339 C 1739.4 548.121 1739.65 550.855 1737.65 554.148 C 1707.25 604.155 1623.18 599.84 1608.96 538.973 C 1603.87 516.902 1607.67 493.717 1619.53 474.422 C 1631.33 455.591 1646.9 446.078 1668.15 441.247 z M 1651.97 494.152 C 1660.3 494.185 1670.04 494.473 1678.25 494.177 C 1684.28 494.322 1690.3 494.415 1696.33 494.453 C 1694.83 480.022 1693.29 456.109 1674.71 454.935 C 1657.93 460.025 1655.93 479.016 1651.97 494.152 z"/>
<path transform="translate(0,0)" fill="rgb(245,244,243)" d="M 887.279 393.055 C 888.962 392.742 889.364 393.067 890.927 393.721 C 893.527 399.953 891.339 434.515 890.526 442.882 C 903.778 442.159 917.054 441.953 930.323 442.265 C 930.723 455.387 931.678 463.397 914.544 462.826 C 906.771 462.567 898.756 462.544 890.96 462.616 C 891.55 476.574 891.822 507.194 890.86 520.324 C 886.189 584.144 916.379 554.21 927.142 561.93 C 931.704 572.615 914.799 580.87 906.781 584.007 C 898.718 587.303 886.862 589.181 878.243 588.223 C 859.131 587.19 845.603 567.985 846.178 549.333 C 846.965 523.814 843.596 487.532 846.858 462.602 C 840.755 462.403 834.073 463.473 828.324 462.319 C 826.392 460.139 826.507 460.552 826.108 457.642 C 823.984 442.163 837.116 443.106 848.042 441.938 C 846.914 401.466 849.911 404.985 887.279 393.055 z"/>
<path transform="translate(0,0)" fill="rgb(245,244,243)" d="M 573.158 440.379 C 581.692 440.092 588.217 441.259 597.518 443.647 C 619.497 449.292 640.304 473.994 616.043 491.575 C 612.835 493.9 605.037 494.691 600.593 493.559 C 585.391 491.533 583.091 443.338 563.907 456.35 C 537.208 474.461 540.477 554.156 577.743 560.951 C 592.507 563.643 600.738 559.315 611.186 552.772 C 616.108 548.819 618.626 545.14 625.064 546.879 C 625.501 547.537 626.635 548.947 626.569 549.58 C 624.154 572.928 590.785 587.01 572.462 587.98 C 532.434 590.1 504.018 564.9 501.701 525.828 C 498.926 479.04 525.323 443.475 573.158 440.379 z"/>
<path transform="translate(0,0)" fill="rgb(245,244,243)" d="M 423.151 441.227 C 440.079 438.173 436.653 461.517 435.771 472.032 C 446.062 457.201 464.546 432.586 485.867 442.465 C 490.84 444.817 494.673 449.05 496.521 454.232 C 500.117 464.217 496.194 479.129 484.837 482.346 C 471.891 486.012 464.056 477.327 453.53 471.884 C 435.664 483.323 438.537 499.584 438.12 518.678 C 437.794 533.629 437.34 549.732 440.381 564.287 C 441.136 567.902 446.281 569.758 449.304 571.076 C 452.942 571.775 455.846 572.336 459.404 573.369 C 462.84 577.223 463.617 580.743 459.569 584.548 C 450.841 587.434 386.606 583.038 373.336 584.423 C 371.551 584.335 370.134 583.124 369.505 581.653 C 364.835 570.732 391.078 571.242 391.812 564.19 C 394.112 542.106 397.822 486.062 389.734 467.794 C 382.829 464.509 376.172 465.175 372.613 459.013 C 372.687 447.509 412.775 443.312 423.151 441.227 z"/>
<path transform="translate(0,0)" fill="rgb(245,244,243)" d="M 1400.06 440.359 C 1406.46 440.976 1410.12 443.324 1415.27 446.724 C 1422.29 458.019 1420.96 477.91 1406.19 482.268 C 1395.54 485.41 1383.4 476.983 1374.32 471.658 C 1351.99 490.235 1363.34 529.674 1361.36 555.998 C 1359.92 575.108 1381.97 567.077 1386.59 579.715 C 1386.31 580.992 1384.36 584.413 1383.24 584.447 C 1353.88 585.337 1324.46 584.447 1295.06 584.916 C 1292.86 584.137 1291.94 582.905 1291.07 580.84 C 1293.67 571.704 1304.87 570.892 1312.27 566.075 C 1313.82 565.064 1314.41 564.142 1314.78 562.363 C 1316.89 552.111 1317.59 476.345 1313.92 471.039 C 1309.69 464.928 1299.07 464.209 1295.14 457.791 C 1294.28 456.382 1294.75 455.785 1295.13 454.266 C 1302.59 447.647 1335.94 443.953 1347.46 441.164 C 1362.21 437.592 1358.58 465.017 1358.24 472.708 C 1370.19 455.707 1377.21 442.911 1400.06 440.359 z"/>
<path transform="translate(0,0)" fill="#5c9eff" d="M 1775.46 541.154 C 1783.84 538.996 1792.73 541.523 1798.72 547.766 C 1804.71 554.009 1806.86 562.996 1804.36 571.276 C 1801.86 579.556 1795.08 585.842 1786.64 587.719 C 1773.88 590.555 1761.2 582.638 1758.15 569.929 C 1755.1 557.221 1762.81 544.415 1775.46 541.154 z"/>
</svg>