<svg xmlns="http://www.w3.org/2000/svg" xmlns:xlink="http://www.w3.org/1999/xlink" viewBox="0 0 300 380" width="300" height="380">
  <rect width="300" height="380" fill="#ffffff"/>
  <svg x="34" y="46" width="232" height="288" viewBox="0 0 1024 1024" preserveAspectRatio="xMidYMid meet">
<defs>
	<linearGradient id="Gradient1" gradientUnits="userSpaceOnUse" x1="507.68" y1="418.44" x2="416.311" y2="417.208">
		<stop class="stop0" offset="0" stop-opacity="1" stop-color="rgb(17,143,186)"/>
		<stop class="stop1" offset="1" stop-opacity="1" stop-color="rgb(100,162,200)"/>
	</linearGradient>
	<linearGradient id="Gradient2" gradientUnits="userSpaceOnUse" x1="181.845" y1="376.087" x2="847.773" y2="401.047">
		<stop class="stop0" offset="0" stop-opacity="1" stop-color="rgb(217,235,241)"/>
		<stop class="stop1" offset="1" stop-opacity="1" stop-color="rgb(255,255,255)"/>
	</linearGradient>
</defs>
<path transform="translate(0,0)" fill="rgb(255,255,255)" d="M 0 0 L 1024 0 L 1024 1024 L 0 1024 L 0 0 z"/>
<path transform="translate(0,0)" fill="rgb(12,114,161)" d="M 667.138 196.421 C 670.65 196.252 674.163 196.136 677.678 196.073 C 723.295 195.397 776.144 218.439 808.847 250.451 C 919.346 359.868 862.598 538.091 713.421 572.734 C 700.419 575.754 687.649 575.946 674.406 576.038 C 649.915 576.208 625.429 576.102 600.948 576.437 L 340.25 578.947 C 315.754 579.134 268.961 581.576 246.322 575.922 C 192.167 562.399 148.145 496.045 163.572 440.032 C 183.693 366.975 245.905 338.573 317.321 356.438 C 339.239 272.149 446.927 235.094 518.673 282.808 C 542.085 234.664 615.389 199.354 667.138 196.421 z"/>
<path transform="translate(0,0)" fill="url(#Gradient2)" d="M 522.789 304.113 C 560.533 244.756 613.847 209.49 686.405 212.88 C 728.391 214.842 773.787 236.016 802.551 266.581 C 894.144 363.909 847.259 520.101 719.256 554.707 C 695.298 561.198 670.406 559.841 645.902 559.902 L 588.604 560.257 C 542.912 560.666 488.626 562.508 443.361 561.152 C 428.979 562.293 410.626 561.906 395.888 562.14 C 363.081 562.822 330.267 563.083 297.454 562.923 C 276.399 563.322 257.206 564.144 237.586 555.247 C 209.82 543.09 193.667 524.636 183.144 496.514 C 163.983 445.308 193.419 388.975 243.984 370.771 C 274.975 359.614 295.819 363.891 325.258 377.331 C 338.319 324.589 379.252 281.746 435.077 279.307 C 471.242 277.727 494.061 282.109 522.789 304.113 z"/>
<path transform="translate(0,0)" fill="rgb(129,180,210)" d="M 334.046 397.273 C 341.371 372.711 346.936 347.696 363.753 327.391 C 371.966 317.475 383.594 306.497 396.091 302.624 C 396.106 382.642 395.012 465.428 396.397 545.216 C 396.634 546.014 395.464 558.959 395.485 561.643 C 405.941 561.227 434.161 559.659 443.361 561.152 C 428.979 562.293 410.626 561.906 395.888 562.14 C 363.081 562.822 330.267 563.083 297.454 562.923 L 302.167 562.024 C 307.168 556.93 303.62 550.975 304.192 542.518 L 304.255 541.678 C 304.606 487.279 303.736 433.165 305.05 378.75 C 316.928 384.827 323.567 388.983 334.046 397.273 z"/>
<path transform="translate(0,0)" fill="rgb(180,212,231)" d="M 304.255 541.678 L 305.263 547.001 C 307.396 548.331 392.136 548.881 395.901 547.423 L 396.397 545.216 C 396.634 546.014 395.464 558.959 395.485 561.643 C 405.941 561.227 434.161 559.659 443.361 561.152 C 428.979 562.293 410.626 561.906 395.888 562.14 C 363.081 562.822 330.267 563.083 297.454 562.923 L 302.167 562.024 C 307.168 556.93 303.62 550.975 304.192 542.518 L 304.255 541.678 z"/>
<path transform="translate(0,0)" fill="rgb(12,114,161)" d="M 663.687 226.422 C 692.175 224.265 710.983 228.373 738.161 234.523 C 739.535 334.493 738.007 437.732 738.212 538.061 C 730.342 539.562 722.487 541.134 714.645 542.778 C 696.868 547.023 662.174 546.737 643.221 546.151 C 642.517 508.316 643.067 469.119 643.062 431.121 L 643.163 228.25 C 649.72 227.86 657.078 227.022 663.687 226.422 z"/>
<path transform="translate(0,0)" fill="rgb(12,114,161)" d="M 622.576 233.035 C 623.945 235.216 623.193 283.239 623.188 289.19 L 623.144 546.626 C 594.268 547.253 558.861 547.953 530.288 546.739 C 528.037 543.517 532.328 353.829 530.855 333.165 C 527.838 290.83 585.284 246.79 622.576 233.035 z"/>
<path transform="translate(0,0)" fill="url(#Gradient1)" d="M 442.732 288.434 C 465.35 285.971 489.639 296.388 508.715 307.366 C 509.482 335.941 509.005 366.165 509.009 394.836 L 509.011 547.696 L 485.25 547.697 L 416.118 547.589 C 417.786 517.034 416.871 479.269 416.87 448.09 C 417.14 395.534 416.874 342.977 416.072 290.426 C 422.865 290.565 435.761 289.071 442.732 288.434 z"/>
<path transform="translate(0,0)" fill="rgb(180,212,231)" d="M 251.066 375.057 C 259.244 377.836 275.054 377.364 283.861 376.687 C 283.866 383.955 283.664 391.461 283.461 398.747 C 282.073 448.546 284.627 498.713 283.546 548.456 C 270.878 548.488 263.182 547.838 250.766 545.56 C 247.121 545.219 230.943 542.209 228.691 539.915 L 229.103 539.069 C 230.668 539.521 230.886 539.656 232.561 539.694 C 233.879 533.696 231.065 524.6 231.469 517.305 C 233.676 477.404 232.801 436.901 236.444 397.217 C 237.081 390.274 245.884 381.146 251.197 377.343 L 251.066 375.057 z"/>
<path transform="translate(0,0)" fill="rgb(12,114,161)" d="M 584.812 638.998 C 594.227 638.878 611.702 637.488 619.187 644.043 C 629.94 653.934 634.969 669.092 641.505 681.982 C 648.72 696.214 656.947 709.565 664.323 723.678 C 668.751 732.148 671.785 741.992 677.19 749.854 L 677.431 750.2 C 674.705 724.815 674.201 666.239 675.772 640.007 C 682.282 639.089 687.475 639.18 694.026 639.16 L 694.113 779.86 L 676.858 780.039 C 672.405 777.89 671.438 768.81 668.167 764.547 C 655.559 748.116 617.457 662.602 606.046 655.074 L 605.054 655.732 C 603.239 663.064 603.951 689.82 603.932 698.767 C 603.92 725.727 603.763 752.687 603.46 779.646 C 597.175 779.891 590.53 779.896 584.21 780.002 C 583.755 733 583.956 685.994 584.812 638.998 z"/>
<path transform="translate(0,0)" fill="rgb(131,136,145)" d="M 276.156 688.084 C 294.149 687.69 321.829 684.554 336.728 694.241 C 345.594 715.339 341.924 755.726 341.797 779.814 C 326.109 779.885 296.909 780.747 282.864 778.363 C 259.591 765.852 265.093 747.159 271.772 726.276 C 299.494 719.086 299.871 722.397 326.625 720.237 C 325.837 714.413 324.699 710.013 323.281 704.35 C 314.491 702.663 286.768 703.016 276.107 702.835 C 275.986 698.086 276.127 692.873 276.156 688.084 z"/>
<path transform="translate(0,0)" fill="rgb(255,255,255)" d="M 288.027 737.429 C 299.297 736.734 313.65 736.939 325.148 736.833 C 325.248 742.006 326.132 759.203 323.897 763.347 L 321.249 763.809 C 302.48 763.447 276.247 770.059 283.316 741.959 C 284.01 739.201 285.864 738.595 288.027 737.429 z"/>
<path transform="translate(0,0)" fill="rgb(131,136,145)" d="M 449.06 688.149 C 468.801 687.256 481.952 686.499 501.074 691.032 C 502.182 695.64 504.187 699.935 505.221 704.49 C 507.839 716.028 507.062 728.878 506.862 740.731 C 495.731 741.393 456.063 741.569 445.851 740.259 C 445.933 748.872 445.832 754.72 447.375 763.147 C 458.233 764.371 467.894 764.08 478.806 764.072 L 504.03 764.131 L 503.921 779.817 C 486.149 778.991 464.814 781.506 447.262 778.305 C 443.536 777.626 442.893 775.787 441.088 772.446 C 439.684 774.244 439.306 775.158 437.24 775.769 C 433.227 772.748 430.036 759.146 429.747 753.709 C 428.521 730.684 427.024 713.43 435.761 691.616 L 449.06 688.149 z"/>
<path transform="translate(0,0)" fill="rgb(255,255,255)" d="M 447.213 703.319 C 461.449 702.905 475.468 702.872 489.671 704.032 C 491.014 712.621 490.959 716.745 490.096 725.12 C 475.478 725.253 460.602 725.056 445.962 725.001 C 445.77 717.424 445.706 710.766 447.213 703.319 z"/>
<path transform="translate(0,0)" fill="rgb(12,114,161)" d="M 763.97 639.188 C 797.593 638.426 833.028 638.967 866.855 638.853 L 866.992 655.505 C 852.933 655.435 839.19 656.232 825.121 655.313 C 824.711 682.04 824.443 708.77 824.318 735.5 L 824.289 779.689 C 817.763 779.882 810.899 779.844 804.34 779.909 C 803.062 740.926 804.188 695.372 804.188 655.856 L 764.174 655.447 L 763.97 639.188 z"/>
<path transform="translate(0,0)" fill="rgb(131,136,145)" d="M 202.642 687.476 C 213.659 687.203 225.082 687.402 236.132 687.448 L 236.963 702.967 C 217.808 703.071 197.125 702.815 178.124 703.939 L 176.809 720.22 C 189.865 721.785 230.077 727.434 241.118 736.504 C 243.67 738.6 242.739 749.494 242.243 753.389 C 240.711 765.406 236.895 771.22 227.38 778.59 C 216.443 780.168 207.481 779.937 196.5 779.934 L 161.607 779.834 L 162.116 764.152 C 183.572 764.147 205.979 764.663 227.239 762.529 C 228.221 756.153 228.529 750.85 228.923 744.429 C 214.357 741.838 172.97 735.902 162.931 727.23 C 160.905 724.088 161.03 722.572 160.858 719.009 C 159.323 687.191 177.545 687.85 202.642 687.476 z"/>
<path transform="translate(0,0)" fill="rgb(12,114,161)" d="M 725.436 639.064 L 742.757 639.051 C 744.216 683.456 743.006 734.843 742.93 779.831 L 725.16 780.021 C 724.563 734.48 724.397 684.499 725.436 639.064 z"/>
<path transform="translate(0,0)" fill="rgb(12,114,161)" d="M 539.097 639.033 L 556.833 639.12 C 557.464 685.739 557.036 733.248 556.967 779.931 C 551.24 780.016 545.244 779.906 539.494 779.887 C 538.019 735.317 538.908 684.033 539.097 639.033 z"/>
<path transform="translate(0,0)" fill="rgb(131,136,145)" d="M 397.741 639.345 C 401.837 638.94 410.303 639.033 414.722 638.954 C 414.195 642.753 414.146 650.161 413.996 654.243 C 379.393 655.065 382.225 653.899 381.985 688.045 L 409.095 687.968 L 409.135 703.296 L 381.857 703.644 L 382.011 746.983 C 382.162 757.738 382.611 768.841 382.911 779.622 L 370.023 779.9 C 371.669 755.818 370.853 732.345 370.95 707.894 C 371.024 689.303 368.221 662.697 378.549 646.099 C 381.64 641.13 392.146 640.118 397.741 639.345 z"/>
  </svg>
</svg>
