<svg version="1.1" xmlns="http://www.w3.org/2000/svg" style="display: block;" viewBox="0 0 2048 2048" width="900" height="900" preserveAspectRatio="none">
<path transform="translate(0,0)" fill="rgb(255,255,255)" d="M 0 0 L 2048 0 L 2048 2048 L 0 2048 L 0 0 z"/>
<path transform="translate(0,0)" fill="rgb(25,166,185)" d="M 783.609 802.439 C 812.638 801.273 826.679 805.903 852.855 817.023 C 850.447 830.891 842.219 854.88 838.632 870.891 C 828.694 867.712 817.933 863.764 807.408 863.687 C 778.028 863.474 781.413 892.179 781.783 912.427 C 810.081 913.553 843.128 912.734 871.778 912.696 L 871.837 839.291 C 894.444 838.512 920.282 839.045 943.132 839.042 C 943.009 863.619 943.021 888.197 943.168 912.774 C 965.46 912.814 987.752 912.739 1010.04 912.549 C 1010.51 932.354 1010.61 952.167 1010.32 971.976 C 988.188 971.586 965.493 971.728 943.298 971.556 C 942.67 997.194 943.232 1023.02 942.871 1048.67 C 942.701 1060.68 942.587 1074.15 952.113 1083 C 964.221 1094.26 985.929 1086.25 998.29 1079.12 C 1004.15 1094.41 1009.26 1120.17 1015.21 1132.05 C 999.754 1143.35 981.578 1147.63 962.752 1149.37 C 960.083 1149.65 957.403 1149.81 954.72 1149.86 C 932.442 1150.25 909.518 1145.43 893.053 1129.39 C 884.61 1121.16 879.176 1110.84 876.082 1099.53 C 868.531 1071.95 871.961 1003.68 871.734 971.764 L 779.928 971.833 C 778.991 1030.91 780.051 1090.92 779.51 1150.17 C 757.004 1149.64 734.487 1149.71 711.984 1150.37 C 709.227 1093.71 712.479 1029.26 710.988 971.251 C 700.63 971.628 690.266 971.864 679.901 971.959 C 679.364 952.825 679.782 931.984 679.791 912.722 L 711.25 912.8 C 711.208 873.643 706.323 832.123 747.172 810.861 C 759.609 804.388 769.811 803.087 783.609 802.439 z"/>
<path transform="translate(0,0)" fill="rgb(25,166,185)" d="M 1223.88 912.483 C 1226.16 912.344 1230.4 912.529 1232.83 912.566 C 1238.21 925.24 1244.81 949.716 1248.99 963.866 C 1256.95 990.787 1266.46 1019.23 1271.69 1046.62 C 1280.52 1030.27 1286.8 1004.9 1292.13 986.569 L 1313.73 912.628 C 1336.88 913.013 1360.29 912.645 1383.61 913.001 C 1379.07 925.348 1374.73 941.228 1370.74 954.091 L 1345.92 1033.92 L 1324.36 1103 C 1319.64 1118.05 1314.06 1134.54 1310.57 1149.79 C 1287.08 1149.76 1263.6 1149.86 1240.11 1150.09 C 1232.97 1127.58 1225.98 1105.02 1219.14 1082.43 C 1213.8 1065.06 1207.3 1038.09 1197.2 1023.92 C 1197.12 1030.08 1196.59 1034.04 1195.79 1040.13 C 1185.39 1075.85 1173.33 1113.55 1162.23 1149.2 C 1140.88 1151.11 1115.46 1149.22 1092.98 1150.45 C 1087.39 1138.32 1083.31 1123.35 1079.3 1110.42 L 1060.91 1051.17 C 1047.87 1009.12 1029.02 954.378 1018.19 912.623 C 1042.27 912.743 1066.35 912.737 1090.43 912.607 C 1099.49 945.583 1110.59 978.369 1119.9 1011.31 C 1123.32 1023.43 1126.82 1035.52 1131.62 1047.18 C 1142.96 1005.19 1157.13 954.116 1170.19 912.818 C 1186.19 912.041 1207.43 912.622 1223.88 912.483 z"/>
<path transform="translate(0,0)" fill="rgb(25,166,185)" d="M 278.573 839.416 C 324.97 834.917 381.369 846.077 419.784 872.867 C 414.145 886.772 402.778 923.999 396.643 934.167 C 373.123 918.903 347.707 912.308 319.252 905.169 C 301.71 900.769 252.11 896.218 261.548 930.911 C 262.642 934.932 269.365 942.006 273.256 944.21 C 299.557 959.107 331.543 962.227 359.236 974.246 C 405.281 992.345 424.78 1022.76 418.518 1072.24 C 415.304 1095.28 403.227 1113.89 385.235 1128.94 C 361.919 1148.45 317.662 1160.46 287.76 1156.53 C 238.883 1150.77 195.862 1131.42 158.027 1099.88 C 168.154 1081.41 179.237 1058.8 188.038 1039.66 C 197.025 1045.07 206.209 1052.84 215.492 1058.74 C 240.753 1074.8 269.339 1089.28 299.704 1090.3 C 316.507 1090.86 339.987 1076.41 337.487 1058.76 C 332.982 1026.92 274.627 1023.46 250.685 1013.62 C 232.179 1006.02 217.175 1002.19 201.993 988.701 C 169.696 962.225 169.952 904.789 197.522 874.905 C 218.179 852.514 248.318 841.42 278.573 839.416 z"/>
<path transform="translate(0,0)" fill="rgb(25,166,185)" d="M 548.479 908.445 C 583.845 908.255 616.806 915.047 644.397 938.432 C 666.069 957.145 679.322 983.774 681.182 1012.35 C 687.125 1096.59 643.475 1142.96 560.208 1148.89 C 527.871 1151.48 489.191 1140.02 464.243 1118.69 C 416.866 1078.2 413.732 993.675 454.751 947.747 C 478.351 921.322 513.576 910.401 548.479 908.445 z"/>
<path transform="translate(0,0)" fill="rgb(255,255,255)" d="M 546.078 970.163 C 557.773 969.597 565.954 969.47 576.887 975.018 C 615.575 994.646 616.23 1065.13 576.509 1084.14 C 572.307 1086.15 567.167 1087.57 562.677 1088.87 C 552.431 1091.57 538.057 1088 529.08 1082.61 C 500.478 1065.44 495.897 1021.07 512.049 994.025 C 520.001 980.711 531.226 973.537 546.078 970.163 z"/>
<path transform="translate(0,0)" fill="rgb(25,166,185)" d="M 1763.97 908.469 C 1796.7 908.702 1828.39 915.966 1851.62 940.069 C 1883.57 973.216 1883.36 1007.21 1883.37 1049.32 C 1831.88 1050.99 1772.04 1049.13 1719.99 1049.34 C 1739.32 1104.61 1793.5 1101.37 1830.2 1066.8 C 1836.03 1074.47 1850.09 1086.89 1857.53 1093.73 L 1871.35 1106.72 C 1842.04 1135.39 1815.69 1146.98 1774.47 1148.93 C 1704.08 1152.26 1647.14 1112.38 1643.37 1039.3 C 1639.32 960.731 1686.28 911.158 1763.97 908.469 z"/>
<path transform="translate(0,0)" fill="rgb(255,255,255)" d="M 1755.21 963.26 L 1756.04 963.173 C 1789.81 959.853 1807.94 974.46 1810.56 1008.75 L 1774.03 1008.74 C 1755.33 1008.69 1736.63 1008.78 1717.94 1009.01 C 1723.8 986.583 1731.86 971.669 1755.21 963.26 z"/>
<path transform="translate(0,0)" fill="rgb(25,166,185)" d="M 1636.04 908.289 C 1638.67 907.96 1643.93 907.998 1646.77 907.928 C 1645.45 928.352 1646.15 954.459 1646.18 975.251 C 1623.99 976.93 1606.05 979.238 1589.47 995.545 C 1566.28 1018.36 1570.67 1053.86 1570.74 1084.52 L 1570.94 1146.22 C 1552.97 1146.77 1511.81 1147.44 1494.98 1146.19 L 1495.07 1123.14 L 1495.19 910.332 C 1519.73 911.078 1545.77 910.502 1570.54 910.761 C 1570.94 923.361 1570.7 934.39 1570.16 946.94 C 1592.55 923.257 1602.13 913.545 1636.04 908.289 z"/>
<path transform="translate(0,0)" fill="rgb(25,166,185)" d="M 1395 910.81 L 1470.07 910.606 C 1471.94 988.241 1468.32 1068.59 1470.74 1146.13 C 1449.52 1146.85 1415.77 1147.21 1394.88 1145.9 C 1395.97 1068.41 1395.26 988.365 1395 910.81 z"/>
<path transform="translate(0,0)" fill="rgb(25,166,185)" d="M 1394.99 838.759 C 1425.92 843.303 1461.65 862.175 1497.71 866.569 C 1487.58 872.977 1481.85 874.633 1470.23 878.18 C 1444.97 884.942 1420.15 894.508 1394.03 901.015 C 1395.93 883.338 1395.08 857.279 1394.99 838.759 z"/>
</svg>