<svg version="1.1" xmlns="http://www.w3.org/2000/svg" style="display: block;" viewBox="0 0 1024 1024" width="256" height="256" preserveAspectRatio="none">
<circle cx="512" cy="512" r="512" fill="rgb(26,25,22)"/>
<path transform="translate(0,0)" fill="rgb(245,244,243)" d="M 410.037 328.443 C 416.35 327.966 425.527 327.961 432.017 328.033 C 483.69 328.153 535.651 331.53 574.078 371.152 C 612.273 410.534 607.176 472.762 607.162 523.05 L 607.313 643.821 C 623.526 644.159 640.459 643.951 656.728 643.987 C 656.825 657.349 656.778 670.711 656.588 684.072 L 492.966 684.091 C 492.842 671.158 492.511 658.228 491.973 645.306 C 463.492 677.053 428.199 695.565 385.498 695.865 C 354.015 696.085 338.943 695.279 311.677 679.265 C 258.557 645.981 253.26 550.453 296.555 508.303 C 342.62 463.456 433.214 467.811 492.967 467.865 C 493.395 433.231 489.009 377.792 444.607 371.197 C 389.757 363.049 345.49 366.188 331.696 428.241 L 293.969 428.119 L 293.866 347.646 C 309.236 345.41 322.183 339.241 337.317 335.9 C 361.28 330.609 385.631 329.499 410.037 328.443 z"/>
<path transform="translate(0,0)" fill="rgb(26,25,22)" d="M 447.459 508.425 C 462.344 507.819 478.01 508.079 492.974 508.121 C 493.094 563.652 506.934 640.322 431.379 643.807 C 420.4 643.071 410.135 642.565 401.769 634.725 C 376.352 610.906 377.625 550.61 401.131 525.163 C 415.091 510.049 428.499 509.546 447.459 508.425 z"/>
<path transform="translate(0,0)" fill="rgb(201,90,59)" d="M 743.316 308.505 C 748.948 308.151 761.41 307.049 766.347 309.063 C 766.606 309.724 768.149 313.467 768.711 313.664 C 780.073 317.668 792.339 321.624 799.923 331.642 C 805.239 338.664 807.601 347.155 810.689 355.273 C 810.697 355.294 814.15 357.368 814.432 357.539 C 816.91 362.294 816.349 376.109 815.407 381.68 C 814.971 384.26 810.458 389.581 809.406 392.918 C 800.03 422.647 787.973 420.356 764.045 434.447 C 758.265 435.772 748.04 437.542 742.636 434.771 C 732.713 429.682 717.765 424.957 709.693 417.387 C 687.169 396.266 686.083 351.971 707.098 329.586 C 709.684 326.814 712.594 324.363 715.766 322.286 C 719.299 319.975 741.189 308.581 743.316 308.505 z"/>
</svg>