<svg xmlns="http://www.w3.org/2000/svg" version="1.1" viewBox="455 598 1436 154" width="1436" height="154" style="display:block">
  <svg x="0" y="0" width="2048" height="1347" viewBox="0 0 2048 1347">
    <defs><mask id="hole" maskUnits="userSpaceOnUse">
      <rect x="0" y="0" width="2048" height="1347" fill="#fff"/>
      <g transform="translate(402.09,443.29) scale(0.3447)">
      <path transform="translate(0,0)" fill="#fff" d="M 168.164 466.219 L 580.022 466.207 L 579.959 878.111 L 168.18 878.251 L 168.164 466.219 z"/>
      <path transform="translate(0,0)" fill="#000" d="M 226.716 524.888 C 324.883 523.692 426.226 524.437 524.543 524.836 C 523.097 623.596 525.111 723.636 524.182 822.639 L 226.716 822.579 L 226.716 524.888 z"/>
      <path transform="translate(0,0)" fill="#fff" d="M 416.188 566.233 C 429.271 567.598 477.946 566.926 491.562 566.16 C 484.18 576.97 475.867 588.485 467.909 598.872 C 422.712 657.862 381.202 721.87 335.633 780.335 C 331.707 781.867 268.166 781.007 259.592 781.034 C 272.061 765.141 284.916 746.555 296.913 730.037 L 373.143 625.168 C 387.004 606.078 401.795 584.769 416.188 566.233 z"/>
      </g>
      <path transform="translate(0,0)" fill="#fff" d="M 642.898 603.958 C 654.389 603.912 669.237 604.418 680.266 603.865 C 722.824 601.731 757.757 615.041 759.483 663.277 C 760.319 686.632 759.659 707.504 742.299 726.299 C 717.553 748.707 676.512 743.212 642.942 743.531 C 642.304 697.511 642.898 650.093 642.898 603.958 z"/>
      <path transform="translate(0,0)" fill="#000" d="M 666.215 624.286 C 681.507 624.122 706.755 622.794 719.08 631.998 C 740.641 648.101 737.698 693.007 723.032 712.507 C 708.113 725.435 685.077 723.37 666.192 723.289 L 666.215 624.286 z"/>
      <path transform="translate(0,0)" fill="#fff" d="M 1473.05 604.031 C 1494.79 603.889 1518.65 602.729 1540.17 604.873 C 1575.22 608.366 1585.62 648.54 1556.19 669.278 C 1580.05 679.494 1585.38 700.118 1575.45 723.382 C 1570.31 732.701 1559.56 740.278 1549.2 741.551 C 1524.84 744.546 1497.7 743.262 1473.11 743.467 C 1472.62 697.271 1473.06 650.292 1473.05 604.031 z"/>
      <path transform="translate(0,0)" fill="#000" d="M 1497 680.847 C 1507.62 680.74 1518.28 680.689 1528.9 680.797 C 1552.3 681.034 1562.41 697.397 1549.24 717.743 C 1537.06 726.086 1512.34 723.47 1497.07 723.208 L 1497 680.847 z"/>
      <path transform="translate(0,0)" fill="#000" d="M 1497.05 624.077 C 1512.29 623.857 1548.74 618.767 1547.99 641.234 C 1547.74 648.828 1547.75 651.245 1542.37 656.876 C 1532.09 662.704 1509.54 660.712 1497.02 660.523 L 1497.05 624.077 z"/>
      <path transform="translate(0,0)" fill="#fff" d="M 1632.54 644.368 C 1672.64 641.764 1675.04 668.257 1673.41 700.131 C 1672.73 713.468 1673.27 729.644 1673.2 743.252 C 1668.77 743.368 1657.38 744.186 1654.24 742.109 C 1653.92 739.419 1653.86 737.37 1653.77 734.657 L 1652.68 733.921 C 1632.14 748.224 1604.4 753.389 1591.59 726.75 C 1580.27 682.996 1622.36 683.65 1651.66 683.89 C 1651.75 669.32 1647.14 656.999 1627.67 661.721 C 1621.23 663.283 1618.22 667.826 1615.41 673.664 C 1608.02 673.818 1600.47 673.63 1593.06 673.531 C 1601.17 651.31 1609.62 646.654 1632.54 644.368 z"/>
      <path transform="translate(0,0)" fill="#000" d="M 1629.65 700.422 C 1636.86 700.222 1644.7 700.329 1651.96 700.288 C 1651.68 716.447 1650.08 720.884 1635.04 727.404 C 1622.22 728.824 1605.46 724.644 1614.65 706.282 C 1616.94 701.704 1624.7 700.919 1629.65 700.422 z"/>
      <path transform="translate(0,0)" fill="#fff" d="M 814.691 644.345 C 853.915 644.315 860.275 669.039 859.99 702.287 C 837.538 702.583 814.769 702.424 792.291 702.456 C 793.068 706.649 793.895 711.092 795.534 714.656 C 803.59 732.176 828.969 733.564 837.461 715.907 C 838.471 713.806 845.609 714.517 848.184 714.505 C 851.475 714.464 853.264 714.265 856.485 715.12 C 860.339 719.81 858.193 722.687 854.95 727.153 C 839.832 747.971 806.894 751.537 786.998 736.042 C 765.958 719.655 765.23 679.21 781.677 659.373 C 790.643 648.561 801.281 645.685 814.691 644.345 z"/>
      <path transform="translate(0,0)" fill="#000" d="M 811.166 662.174 C 829.748 661.225 836.08 666.755 838.41 685.389 L 822.25 685.412 C 812.311 685.4 802.371 685.312 792.433 685.148 C 795.791 672.641 797.924 666.307 811.166 662.174 z"/>
      <path transform="translate(0,0)" fill="#fff" d="M 1374.82 644.379 L 1375.66 644.372 C 1414.53 644.428 1420.21 669.931 1420.12 702.453 C 1398.13 701.97 1375.03 702.311 1352.96 702.35 C 1353.42 704.825 1354.26 710.919 1355.19 712.864 C 1364.76 732.877 1387.6 734.274 1398.44 714.47 L 1412.25 714.67 L 1416.99 714.847 C 1426 724.643 1396.42 745.028 1385.68 745.15 C 1371.17 745.313 1359.73 745.956 1347.58 736.312 C 1326.35 719.454 1325.67 679.682 1341.81 659.433 C 1350.54 648.666 1361.46 645.731 1374.82 644.379 z"/>
      <path transform="translate(0,0)" fill="#000" d="M 1371.21 662.216 C 1376.73 661.909 1381.45 661.691 1386.64 664.219 C 1392.76 667.193 1401.61 677.498 1397.79 684.53 C 1394.88 686.163 1385.42 685.457 1381.5 685.398 C 1372.04 685.436 1362.58 685.312 1353.13 685.027 C 1356.46 671.851 1357.71 667.154 1371.21 662.216 z"/>
      <path transform="translate(0,0)" fill="#fff" d="M 1232.98 603.883 L 1255.06 604.009 L 1254.89 655.404 C 1270.46 644.366 1295.19 638.255 1309.46 652.788 C 1324.57 668.172 1319.24 722.505 1319.26 743.112 L 1297.18 743.534 C 1296.8 728.642 1297.06 712.498 1297.04 697.512 C 1297.16 687.586 1298.21 676.535 1291.13 668.608 C 1287.99 665.025 1283.45 662.978 1278.68 662.992 C 1251.04 662.863 1254.44 696.821 1254.99 715.044 C 1255.27 724.328 1255.02 733.909 1255.03 743.225 L 1232.95 743.329 L 1232.98 603.883 z"/>
      <path transform="translate(0,0)" fill="#fff" d="M 1795.09 604.002 L 1817.22 604.099 L 1817.21 689.201 C 1829.1 677.644 1843.75 659.727 1855.43 646.88 C 1863.69 646.55 1872.99 646.867 1881.35 646.989 C 1869.84 658.25 1854.73 676.003 1843.24 688.438 L 1874.78 728.298 C 1878.65 733.217 1882.48 738.164 1886.27 743.14 L 1859.75 743.411 C 1845.74 725.141 1831.57 706.993 1817.25 688.971 C 1817.05 706.898 1817.21 725.111 1817.21 743.062 C 1809.94 743.369 1802.33 743.218 1795.03 743.189 C 1794.35 697.612 1794.86 649.681 1795.09 604.002 z"/>
      <path transform="translate(0,0)" fill="#fff" d="M 1742 644.344 C 1778.72 644.456 1778.06 672.295 1777.36 700.377 C 1777.01 714.383 1777.21 729.067 1777.13 743.131 C 1769.73 743.265 1762.33 743.306 1754.93 743.255 C 1754.5 717.951 1766.79 645.419 1722.83 667.994 L 1716.3 673.988 C 1711.38 688.538 1713.06 725.809 1712.96 743.385 L 1691.02 743.486 L 1691.18 646.874 C 1695.99 646.839 1707.97 646.291 1711.9 647.646 C 1712.93 650.231 1712.8 650.727 1712.85 653.614 L 1712.86 654.482 C 1715.42 654.966 1719.66 650.037 1724.46 648.222 C 1731.65 645.498 1734.32 645.189 1742 644.344 z"/>
      <path transform="translate(0,0)" fill="#fff" d="M 936.893 646.971 L 958.557 646.871 C 958.867 655.156 958.712 664.385 958.74 672.75 L 958.772 743.242 C 952.43 743.362 946.746 743.554 940.392 743.013 C 937.571 740.918 940.542 739.092 938.476 734.517 C 929.889 735.871 926.56 745.23 910.322 745.387 C 872.27 745.754 871.844 720.653 872.441 689.855 C 872.688 677.132 872.456 660.66 872.484 646.992 L 894.653 646.938 C 894.905 665.175 890.553 712.305 901.395 723.294 C 904.122 726.072 907.854 727.636 911.747 727.632 C 938.703 727.634 937.823 698.955 936.883 680.001 C 936.356 669.365 936.634 657.643 936.893 646.971 z"/>
      <path transform="translate(0,0)" fill="#fff" d="M 1079.57 644.332 C 1104.27 644.462 1116.89 650.613 1122.76 675.232 C 1116.14 675.85 1108.19 675.657 1101.44 675.673 C 1096.66 663.552 1088.13 659.84 1075.44 661.448 C 1069.14 662.246 1063.92 667.204 1065.82 673.902 C 1067.86 681.087 1075.21 683.495 1081.85 684.551 C 1097.11 687.427 1119.4 689.546 1122.84 708.348 C 1124.36 716.651 1123.18 725.329 1118.27 732.297 C 1112.31 740.748 1100.46 743.525 1090.9 745.11 C 1064.09 746.071 1048.7 741.817 1042.71 714.069 C 1049.81 713.947 1057.07 713.983 1064.18 713.947 C 1069.96 732.739 1099.1 736.253 1101.66 715.551 C 1102.75 706.649 1084.37 703.985 1077.72 702.801 C 1063.34 700.243 1046.94 695.816 1045.21 678.429 C 1042.74 654.302 1058.84 646.867 1079.57 644.332 z"/>
      <path transform="translate(0,0)" fill="#fff" d="M 1168.27 645.43 C 1196.96 641.631 1215.79 650.779 1220.86 680.159 C 1213.59 680.326 1205.99 680.258 1198.69 680.295 C 1194.72 660.93 1175.54 656.237 1161.92 670.1 C 1155.47 676.671 1155.66 695.388 1156.79 704.323 C 1159.59 726.506 1182.5 739.878 1197.07 716.774 C 1197.86 713.02 1197.3 712.645 1199.75 710.267 C 1206.15 708.252 1213.8 709.33 1220.92 709.521 C 1217.39 726.412 1210.78 739.068 1192.86 743.57 C 1180.1 746.872 1164.75 746.309 1153.11 739.398 C 1129.42 725.332 1128.59 683.771 1141.5 662.389 C 1147.82 651.939 1156.8 648.044 1168.27 645.43 z"/>
      <path transform="translate(0,0)" fill="#fff" d="M 1007.68 620.955 L 1009.55 621.656 C 1010.37 626.875 1009.92 640.908 1009.86 646.925 L 1033.89 647.016 L 1033.79 663.531 L 1009.89 663.339 C 1010.06 676.617 1009.66 689.9 1009.41 703.176 C 1009.26 710.714 1009.17 719.857 1016.11 724.639 C 1021.62 728.44 1028.39 726.956 1034.47 725.757 L 1034.67 743.335 C 1030.44 743.689 1025.52 743.764 1021.22 743.928 C 993.587 743.731 987.309 734.496 987.512 707.172 C 987.618 692.889 987.66 678.056 987.723 663.736 C 981.962 663.52 975.766 663.578 969.966 663.523 L 969.969 646.92 L 987.543 647.025 L 987.388 632.088 C 993.835 628.33 1001.08 624.555 1007.68 620.955 z"/>
    </mask></defs>
    <g mask="url(#hole)">
      <g transform="translate(402.09,443.29) scale(0.3447)">
      <path transform="translate(0,0)" fill="rgb(0,23,169)" d="M 168.164 466.219 L 580.022 466.207 L 579.959 878.111 L 168.18 878.251 L 168.164 466.219 z"/>
      <path transform="translate(0,0)" fill="rgb(0,23,169)" d="M 416.188 566.233 C 429.271 567.598 477.946 566.926 491.562 566.16 C 484.18 576.97 475.867 588.485 467.909 598.872 C 422.712 657.862 381.202 721.87 335.633 780.335 C 331.707 781.867 268.166 781.007 259.592 781.034 C 272.061 765.141 284.916 746.555 296.913 730.037 L 373.143 625.168 C 387.004 606.078 401.795 584.769 416.188 566.233 z"/>
      </g>
      <path transform="translate(0,0)" fill="rgb(0,23,169)" d="M 642.898 603.958 C 654.389 603.912 669.237 604.418 680.266 603.865 C 722.824 601.731 757.757 615.041 759.483 663.277 C 760.319 686.632 759.659 707.504 742.299 726.299 C 717.553 748.707 676.512 743.212 642.942 743.531 C 642.304 697.511 642.898 650.093 642.898 603.958 z"/>
      <path transform="translate(0,0)" fill="rgb(0,23,169)" d="M 1473.05 604.031 C 1494.79 603.889 1518.65 602.729 1540.17 604.873 C 1575.22 608.366 1585.62 648.54 1556.19 669.278 C 1580.05 679.494 1585.38 700.118 1575.45 723.382 C 1570.31 732.701 1559.56 740.278 1549.2 741.551 C 1524.84 744.546 1497.7 743.262 1473.11 743.467 C 1472.62 697.271 1473.06 650.292 1473.05 604.031 z"/>
      <path transform="translate(0,0)" fill="rgb(0,23,169)" d="M 1632.54 644.368 C 1672.64 641.764 1675.04 668.257 1673.41 700.131 C 1672.73 713.468 1673.27 729.644 1673.2 743.252 C 1668.77 743.368 1657.38 744.186 1654.24 742.109 C 1653.92 739.419 1653.86 737.37 1653.77 734.657 L 1652.68 733.921 C 1632.14 748.224 1604.4 753.389 1591.59 726.75 C 1580.27 682.996 1622.36 683.65 1651.66 683.89 C 1651.75 669.32 1647.14 656.999 1627.67 661.721 C 1621.23 663.283 1618.22 667.826 1615.41 673.664 C 1608.02 673.818 1600.47 673.63 1593.06 673.531 C 1601.17 651.31 1609.62 646.654 1632.54 644.368 z"/>
      <path transform="translate(0,0)" fill="rgb(0,23,169)" d="M 814.691 644.345 C 853.915 644.315 860.275 669.039 859.99 702.287 C 837.538 702.583 814.769 702.424 792.291 702.456 C 793.068 706.649 793.895 711.092 795.534 714.656 C 803.59 732.176 828.969 733.564 837.461 715.907 C 838.471 713.806 845.609 714.517 848.184 714.505 C 851.475 714.464 853.264 714.265 856.485 715.12 C 860.339 719.81 858.193 722.687 854.95 727.153 C 839.832 747.971 806.894 751.537 786.998 736.042 C 765.958 719.655 765.23 679.21 781.677 659.373 C 790.643 648.561 801.281 645.685 814.691 644.345 z"/>
      <path transform="translate(0,0)" fill="rgb(0,23,169)" d="M 1374.82 644.379 L 1375.66 644.372 C 1414.53 644.428 1420.21 669.931 1420.12 702.453 C 1398.13 701.97 1375.03 702.311 1352.96 702.35 C 1353.42 704.825 1354.26 710.919 1355.19 712.864 C 1364.76 732.877 1387.6 734.274 1398.44 714.47 L 1412.25 714.67 L 1416.99 714.847 C 1426 724.643 1396.42 745.028 1385.68 745.15 C 1371.17 745.313 1359.73 745.956 1347.58 736.312 C 1326.35 719.454 1325.67 679.682 1341.81 659.433 C 1350.54 648.666 1361.46 645.731 1374.82 644.379 z"/>
      <path transform="translate(0,0)" fill="rgb(0,23,169)" d="M 1232.98 603.883 L 1255.06 604.009 L 1254.89 655.404 C 1270.46 644.366 1295.19 638.255 1309.46 652.788 C 1324.57 668.172 1319.24 722.505 1319.26 743.112 L 1297.18 743.534 C 1296.8 728.642 1297.06 712.498 1297.04 697.512 C 1297.16 687.586 1298.21 676.535 1291.13 668.608 C 1287.99 665.025 1283.45 662.978 1278.68 662.992 C 1251.04 662.863 1254.44 696.821 1254.99 715.044 C 1255.27 724.328 1255.02 733.909 1255.03 743.225 L 1232.95 743.329 L 1232.98 603.883 z"/>
      <path transform="translate(0,0)" fill="rgb(0,23,169)" d="M 1795.09 604.002 L 1817.22 604.099 L 1817.21 689.201 C 1829.1 677.644 1843.75 659.727 1855.43 646.88 C 1863.69 646.55 1872.99 646.867 1881.35 646.989 C 1869.84 658.25 1854.73 676.003 1843.24 688.438 L 1874.78 728.298 C 1878.65 733.217 1882.48 738.164 1886.27 743.14 L 1859.75 743.411 C 1845.74 725.141 1831.57 706.993 1817.25 688.971 C 1817.05 706.898 1817.21 725.111 1817.21 743.062 C 1809.94 743.369 1802.33 743.218 1795.03 743.189 C 1794.35 697.612 1794.86 649.681 1795.09 604.002 z"/>
      <path transform="translate(0,0)" fill="rgb(0,23,169)" d="M 1742 644.344 C 1778.72 644.456 1778.06 672.295 1777.36 700.377 C 1777.01 714.383 1777.21 729.067 1777.13 743.131 C 1769.73 743.265 1762.33 743.306 1754.93 743.255 C 1754.5 717.951 1766.79 645.419 1722.83 667.994 L 1716.3 673.988 C 1711.38 688.538 1713.06 725.809 1712.96 743.385 L 1691.02 743.486 L 1691.18 646.874 C 1695.99 646.839 1707.97 646.291 1711.9 647.646 C 1712.93 650.231 1712.8 650.727 1712.85 653.614 L 1712.86 654.482 C 1715.42 654.966 1719.66 650.037 1724.46 648.222 C 1731.65 645.498 1734.32 645.189 1742 644.344 z"/>
      <path transform="translate(0,0)" fill="rgb(0,23,169)" d="M 936.893 646.971 L 958.557 646.871 C 958.867 655.156 958.712 664.385 958.74 672.75 L 958.772 743.242 C 952.43 743.362 946.746 743.554 940.392 743.013 C 937.571 740.918 940.542 739.092 938.476 734.517 C 929.889 735.871 926.56 745.23 910.322 745.387 C 872.27 745.754 871.844 720.653 872.441 689.855 C 872.688 677.132 872.456 660.66 872.484 646.992 L 894.653 646.938 C 894.905 665.175 890.553 712.305 901.395 723.294 C 904.122 726.072 907.854 727.636 911.747 727.632 C 938.703 727.634 937.823 698.955 936.883 680.001 C 936.356 669.365 936.634 657.643 936.893 646.971 z"/>
      <path transform="translate(0,0)" fill="rgb(0,23,169)" d="M 1079.57 644.332 C 1104.27 644.462 1116.89 650.613 1122.76 675.232 C 1116.14 675.85 1108.19 675.657 1101.44 675.673 C 1096.66 663.552 1088.13 659.84 1075.44 661.448 C 1069.14 662.246 1063.92 667.204 1065.82 673.902 C 1067.86 681.087 1075.21 683.495 1081.85 684.551 C 1097.11 687.427 1119.4 689.546 1122.84 708.348 C 1124.36 716.651 1123.18 725.329 1118.27 732.297 C 1112.31 740.748 1100.46 743.525 1090.9 745.11 C 1064.09 746.071 1048.7 741.817 1042.71 714.069 C 1049.81 713.947 1057.07 713.983 1064.18 713.947 C 1069.96 732.739 1099.1 736.253 1101.66 715.551 C 1102.75 706.649 1084.37 703.985 1077.72 702.801 C 1063.34 700.243 1046.94 695.816 1045.21 678.429 C 1042.74 654.302 1058.84 646.867 1079.57 644.332 z"/>
      <path transform="translate(0,0)" fill="rgb(0,23,169)" d="M 1168.27 645.43 C 1196.96 641.631 1215.79 650.779 1220.86 680.159 C 1213.59 680.326 1205.99 680.258 1198.69 680.295 C 1194.72 660.93 1175.54 656.237 1161.92 670.1 C 1155.47 676.671 1155.66 695.388 1156.79 704.323 C 1159.59 726.506 1182.5 739.878 1197.07 716.774 C 1197.86 713.02 1197.3 712.645 1199.75 710.267 C 1206.15 708.252 1213.8 709.33 1220.92 709.521 C 1217.39 726.412 1210.78 739.068 1192.86 743.57 C 1180.1 746.872 1164.75 746.309 1153.11 739.398 C 1129.42 725.332 1128.59 683.771 1141.5 662.389 C 1147.82 651.939 1156.8 648.044 1168.27 645.43 z"/>
      <path transform="translate(0,0)" fill="rgb(0,23,169)" d="M 1007.68 620.955 L 1009.55 621.656 C 1010.37 626.875 1009.92 640.908 1009.86 646.925 L 1033.89 647.016 L 1033.79 663.531 L 1009.89 663.339 C 1010.06 676.617 1009.66 689.9 1009.41 703.176 C 1009.26 710.714 1009.17 719.857 1016.11 724.639 C 1021.62 728.44 1028.39 726.956 1034.47 725.757 L 1034.67 743.335 C 1030.44 743.689 1025.52 743.764 1021.22 743.928 C 993.587 743.731 987.309 734.496 987.512 707.172 C 987.618 692.889 987.66 678.056 987.723 663.736 C 981.962 663.52 975.766 663.578 969.966 663.523 L 969.969 646.92 L 987.543 647.025 L 987.388 632.088 C 993.835 628.33 1001.08 624.555 1007.68 620.955 z"/>
    </g>
  </svg>
</svg>
