<svg version="1.1" xmlns="http://www.w3.org/2000/svg" style="display: block;" viewBox="0 0 2160 2160" width="3840" height="2160" preserveAspectRatio="none">
<path transform="translate(0,0)" fill="rgb(254,102,0)" d="M 1517.69 668.148 C 1517.79 661.942 1518.1 653.781 1517.45 647.697 C 1516.71 640.78 1514.06 633.967 1514.08 626.793 L 1515.24 625.869 C 1521.83 628.63 1535.24 642.719 1541.01 648.4 C 1545.97 644.029 1552.31 638.667 1557.74 635.019 C 1555.76 644.89 1551.38 666.787 1552.42 675.835 L 1553.51 675.939 C 1559 667.723 1564.07 645.681 1568.48 634.045 C 1573.3 632.431 1581.07 630.387 1586.06 631.509 C 1590.97 636.972 1584.76 640.829 1585.29 652.991 L 1585.37 654.559 C 1593.97 650.135 1595.2 648.937 1601.91 642.343 C 1610.05 644.686 1612.35 647.438 1618.71 652.973 C 1615.1 656.104 1608.2 661.618 1606.31 665.751 L 1607.27 667.451 C 1613.26 668.961 1623.72 666.376 1628.37 662.253 L 1630.23 662.937 C 1648.45 684.03 1655.14 725.509 1661.24 752.888 C 1658.98 751.403 1657.33 750.39 1654.97 749.082 L 1653.43 749.703 C 1652.43 757.566 1686.91 804.31 1690.68 814.534 C 1701.69 844.39 1703.45 880.344 1708 912.141 L 1693.71 903.906 C 1697.82 921.435 1700.34 923.696 1714.46 933.631 C 1719.6 952.062 1720.62 964.024 1722.77 983.021 C 1717.89 978.066 1716.25 976.686 1710.75 972.612 C 1713.29 987.64 1714.47 991.924 1723.83 1003.95 C 1723.66 1013.96 1724.28 1025.51 1724.41 1035.75 C 1750.88 1073.7 1782.31 1083.09 1817.37 1049.03 C 1817.07 1037.94 1818.13 1027.62 1822.23 1017.21 C 1825.81 1008.1 1831.05 1000.59 1840.24 996.671 C 1845.54 994.407 1853.58 994.598 1858.41 997.268 C 1909.05 1025.26 1937 1148.9 1944.73 1199.35 C 1949.64 1232.39 1952.22 1265.73 1952.47 1299.13 C 1952.69 1332.82 1952.56 1365.27 1948.08 1398.74 C 1947.33 1404.36 1945.27 1417.34 1947.3 1422.16 C 1959.26 1434.96 1985.85 1427.67 1996.91 1416.43 C 2040.58 1372.07 2057.95 1290.83 2061.05 1230.81 C 2067.08 1113.92 2046.82 980.697 1970 888.064 C 1946.87 860.661 1939.23 878.51 1912.77 878.332 C 1900.97 878.253 1887.16 864.926 1880.39 855.925 C 1877.95 852.681 1870.7 841.84 1871.16 837.774 L 1872.77 837.209 C 1880.47 838.568 1885.19 841.3 1891.55 845.602 L 1887.17 831.232 C 1896.42 827.727 1900.23 826.303 1909.96 823.942 C 1903.82 812.453 1900.12 817.091 1889.96 812.408 C 1886.38 810.753 1886.83 810.172 1882.42 811.641 C 1880.65 817.461 1886.91 820.396 1883 825.854 C 1878.08 826.65 1876.84 824.054 1872.1 822.484 C 1872.1 822.484 1865.62 823.178 1864.96 823.249 C 1854.58 801.013 1857.7 788.769 1839.26 768.567 C 1864.2 757.788 1886.64 733.084 1915.17 747.12 L 1908.58 758.684 C 1915.69 768.931 1918.13 771.015 1929.28 775.708 C 1926.89 766.337 1925.41 761.069 1921.93 752.118 C 1938.93 761.117 1947.25 788.255 1953.78 805.328 C 1965.95 837.094 1982.45 855.317 2002.99 881.402 C 2021.79 905.285 2037.21 943.547 2047.51 972.712 C 2084.7 1078.07 2096.59 1194.79 2081.47 1305.51 C 2073.55 1362.85 2047.31 1451.89 1999.28 1488.58 C 1978.99 1504.08 1958.34 1507.11 1933.55 1503.15 C 1929.95 1508.28 1927.61 1510.43 1921.81 1512.76 C 1918.53 1513.76 1909.94 1516.53 1906.91 1516.58 C 1887.31 1516.96 1867.39 1516.83 1847.8 1516.83 L 1733.35 1516.84 L 1423.01 1516.84 C 1410.54 1516.84 1327.9 1518.33 1320.11 1515.88 C 1311.19 1492.19 1306.73 1465.62 1313.42 1440.68 C 1314.88 1435.21 1319.52 1429.16 1320.44 1423.63 C 1323.08 1407.77 1323.74 1387.08 1338.77 1377.45 C 1339.94 1375.54 1355.76 1373.42 1355.73 1373.45 C 1372.71 1355.37 1381.28 1349.49 1402.09 1367.59 C 1408.13 1347.55 1410.1 1321.27 1414.44 1299.4 C 1419.37 1274.62 1428.98 1245.16 1431.91 1220.43 C 1432.21 1217.95 1427.42 1196.45 1426.62 1191.98 C 1421.73 1165.25 1417.44 1138.42 1413.74 1111.5 C 1413.09 1106.7 1409.58 1082.43 1410.57 1079.16 C 1415.12 1063.99 1419.26 1051.89 1421.54 1035.59 C 1411.91 1044.12 1412.02 1045.41 1407.6 1057.82 C 1406.79 1047.75 1405.85 1037.44 1404.91 1027.38 C 1403.44 1011.74 1406.84 1005.47 1415.19 993.246 C 1415.17 983.196 1415.33 975.075 1416.71 965.144 C 1410.02 973.558 1407.64 976.908 1403.92 986.855 C 1403.58 971.931 1403.41 957.004 1403.41 942.076 L 1411.02 933.704 C 1410.9 889.445 1411.05 848.255 1417.89 804.228 C 1420.06 790.273 1425.54 781.536 1428.54 769.532 C 1429.95 763.877 1430.51 741.315 1430.86 733.919 C 1434.59 729.543 1439.34 722.851 1442.33 717.979 C 1440.71 712.925 1441.25 718.145 1436.08 713.568 C 1436.82 697.613 1454.03 662.608 1466.09 651.891 C 1472.86 653.907 1486.21 660.502 1491.61 658.945 L 1491.99 656.983 C 1488.79 650.399 1486.95 649.332 1480.57 645.535 C 1488.54 638.335 1493.03 635.769 1502.63 631.387 C 1504.74 640.166 1512.75 660.827 1517.69 668.148 z"/>
<path transform="translate(0,0)" fill="rgb(254,254,254)" d="M 1569.33 1372.39 C 1595.53 1366 1602.56 1378.19 1611.67 1399.64 C 1585.24 1391.25 1577.9 1373.7 1574.53 1414.93 C 1582.27 1420.99 1584.5 1424.89 1589.31 1433.11 C 1594.49 1422.85 1595.34 1421.57 1604.5 1415.22 C 1608.95 1416.78 1613.03 1417.95 1616.41 1421.37 C 1626.64 1431.72 1622.6 1457.05 1621.57 1471.58 C 1628.28 1477.32 1635.71 1482.54 1642.76 1488.58 C 1638.68 1492.71 1636.07 1494.46 1631.43 1497.77 C 1625.72 1495.91 1619.72 1492.19 1614.5 1492.76 C 1610.17 1496.4 1607.06 1508.87 1604.97 1514.96 L 1766.51 1514.96 C 1751.05 1462.27 1751.91 1460.21 1771.29 1408.72 C 1781.46 1405.94 1788.7 1403.27 1799.25 1404.88 L 1805.96 1390.45 C 1817.43 1387.79 1827.63 1389.22 1832.87 1401.34 C 1832.59 1405.3 1833.38 1403.72 1830.62 1406.31 C 1826.71 1407.32 1823.14 1405.2 1819.24 1403.59 C 1820.03 1408.95 1822.02 1414.61 1821.83 1419.3 L 1820.13 1420.52 C 1816.42 1420.03 1815.09 1418.8 1811.93 1416.79 L 1810.71 1416 C 1808.05 1420.82 1806.4 1427.05 1804.7 1432.39 C 1810.21 1440.93 1811.94 1443.99 1813.95 1453.55 L 1808.81 1467.49 L 1800.94 1456.58 C 1798.72 1472.44 1800.3 1498.82 1800.15 1516.34 C 1805.03 1516.13 1810.15 1515.28 1815 1514.61 C 1816.58 1480.7 1816.83 1452.69 1831.46 1421.29 C 1842.52 1397.56 1848.36 1406.07 1858.53 1423.38 C 1861.96 1429.23 1867.61 1436.4 1861.96 1442.81 C 1854.49 1443.01 1851.46 1435.74 1848.76 1430.18 C 1846.55 1436.11 1844.21 1442 1841.74 1447.84 C 1851.98 1464.28 1854.04 1476.15 1843.94 1493.25 C 1841.13 1485.01 1839.47 1469.58 1834.41 1465.55 C 1827 1469.75 1822.43 1508.17 1824.73 1514.22 C 1831.85 1515.78 1840.93 1515.37 1848.88 1515.2 C 1872.44 1514.69 1896.8 1516.25 1920.14 1512.68 C 1920.7 1512.7 1921.26 1512.73 1921.81 1512.76 C 1918.53 1513.76 1909.94 1516.53 1906.91 1516.58 C 1887.31 1516.96 1867.39 1516.83 1847.8 1516.83 L 1733.35 1516.84 L 1423.01 1516.84 C 1410.54 1516.84 1327.9 1518.33 1320.11 1515.88 C 1328.36 1512.83 1502.45 1514.95 1528.55 1514.92 C 1509.2 1466.78 1519.55 1442.48 1535.04 1395.3 C 1549.66 1383.8 1547.43 1388.46 1562.81 1384.86 C 1566.39 1382.25 1567.71 1376.78 1569.33 1372.39 z"/>
<path transform="translate(0,0)" fill="rgb(254,102,0)" d="M 1553.38 1411.21 C 1555.05 1413.14 1552.24 1432.26 1552 1437.16 C 1550.67 1463.96 1553.05 1489.11 1560.42 1514.94 L 1544.19 1514.99 C 1543.54 1512.62 1542.7 1507.88 1542.17 1505.31 C 1536.12 1486.22 1532.67 1478.37 1533.63 1458.15 C 1539.65 1453.22 1548.77 1446.65 1546.39 1438.06 C 1543.91 1435.5 1542.14 1435.31 1538.71 1434.23 L 1537.37 1433.81 C 1536.68 1429.88 1538.44 1423.61 1539.32 1419.46 L 1553.38 1411.21 z"/>
<path transform="translate(0,0)" fill="rgb(254,102,0)" d="M 1569.92 1432.92 C 1574.15 1436.07 1578.19 1446.57 1583.97 1452.15 C 1583.41 1460.59 1583.24 1511.59 1580.93 1514.94 C 1578.63 1515.01 1570.61 1515.67 1570.08 1512.79 C 1566.34 1492.6 1563.77 1471.04 1564.18 1450.48 C 1564.25 1446.69 1568.38 1436.85 1569.92 1432.92 z"/>
<path transform="translate(0,0)" fill="rgb(254,102,0)" d="M 1791.86 1424.01 L 1792.46 1424.51 C 1793.63 1428.28 1788.87 1443.95 1788.76 1450.31 C 1788.36 1471.65 1790.26 1493.56 1791.49 1514.88 L 1778.44 1514.97 L 1773.7 1495.52 C 1769.72 1475.83 1767.09 1464.28 1773.55 1445.19 C 1776.02 1453.47 1777.82 1459.1 1781.09 1467.06 C 1784.39 1453.16 1786.84 1443.65 1781.76 1430.02 L 1781.1 1428.27 C 1783.05 1426 1788.69 1424.92 1791.86 1424.01 z"/>
<path transform="translate(0,0)" fill="rgb(254,102,0)" d="M 1601.2 1437.8 C 1619.13 1440.02 1612.01 1462.62 1610.11 1475.17 C 1608.12 1488.38 1605.55 1502 1602.73 1515.05 L 1591.06 1515.12 C 1592.46 1492.83 1591.93 1456.24 1601.2 1437.8 z"/>
<path transform="translate(0,0)" fill="rgb(254,254,254)" d="M 1480.01 685.327 C 1486.52 686.487 1494.77 692.158 1500.67 695.695 C 1501.82 704.135 1505.3 705.875 1509.03 713.237 C 1510.46 716.075 1517.73 733.941 1518.79 734.449 C 1527.53 738.626 1535.53 738.064 1545.02 746.352 L 1545.98 747.206 C 1547.36 745.947 1548.77 744.719 1550.2 743.522 C 1560.31 735.046 1567.62 735.317 1579.66 736.463 L 1579.84 735.404 C 1582.15 721.773 1589.69 686.707 1610.14 692.385 C 1647.24 702.685 1651.12 787.774 1619.43 804.479 C 1621.2 818.659 1621.92 832.346 1619.08 846.384 C 1618.33 850.055 1616.37 856.717 1617.1 860.148 C 1619.87 859.453 1622.96 856.101 1625.25 854.01 C 1624.38 859.65 1623.31 874.249 1622.04 878.981 C 1618.29 892.946 1611.37 911.673 1606.16 925.592 C 1603.09 933.809 1596.1 936.395 1594.1 941.757 C 1595.86 945.043 1604.15 946.286 1608.43 947.341 C 1626.02 951.677 1635.35 959.019 1648.62 970.83 L 1649.13 986.113 C 1632.84 970.88 1619.81 960.914 1597.13 957.97 C 1596.79 963.566 1596.09 969.393 1595.52 974.989 C 1615.59 990.367 1626.16 1002.83 1640.18 1023.57 C 1640.1 1029.81 1639.88 1034.96 1639.4 1041.18 C 1626.22 1020.79 1612.98 1000.02 1592.81 986.127 C 1590.42 992.451 1587.52 998.614 1584.73 1004.78 C 1577.67 997.185 1573.04 992.297 1565.12 985.475 C 1546.87 972.275 1548.52 980.463 1546.94 954.507 C 1555.72 946.063 1553.9 942.097 1558.33 931.466 C 1561.94 928.425 1560.48 933.374 1566.19 931.03 C 1583.24 900.985 1525.76 890.933 1520.56 915.895 C 1519.89 919.133 1520.19 924.168 1522.19 926.961 C 1525.34 928.77 1527.17 928.035 1530.62 927.532 C 1534.24 941.025 1532.05 943.268 1541.4 954.215 C 1541.09 957.931 1540.52 967.019 1539.49 970.276 C 1536.01 981.303 1523.38 982.819 1514.87 988.848 C 1509.76 992.468 1506.07 996.35 1501.7 1000.79 C 1497.07 994.299 1494.88 989.82 1491.24 982.657 C 1472.35 995.357 1460.21 1013.73 1447.19 1031.9 C 1446.91 1025.53 1447.06 1018.45 1447.06 1012.01 C 1457.49 994.133 1472.47 983.445 1488.27 970.484 C 1488.21 964.637 1488.46 959.457 1487.14 953.769 C 1474.24 942.2 1446.19 968.353 1437.53 977.836 C 1437.41 972.443 1437.6 966.874 1437.71 961.467 C 1452.22 944.549 1468.21 937.483 1490.23 936.595 L 1488.57 928.023 C 1486.85 919.177 1478.7 904.989 1475.34 894.883 C 1469.21 876.457 1472.28 871.798 1471.84 854.801 C 1471.28 832.614 1470.18 820.628 1473.54 798.113 C 1459.42 785.745 1456.19 774.95 1451.66 757.499 C 1446.27 736.697 1453.02 721.465 1459.81 702.352 C 1469.7 696.863 1470.93 691.437 1480.01 685.327 z"/>
<path transform="translate(0,0)" fill="rgb(254,102,0)" d="M 1573.34 815.764 C 1581.73 815.95 1598.58 814.083 1603.96 819.265 L 1603.94 821.994 C 1601.7 826.588 1598.53 828.775 1594.67 832.202 C 1593.14 837.703 1591.95 842.506 1587.08 845.902 C 1578.5 851.887 1574.59 843.063 1570.46 838.01 C 1569.08 840.122 1571.44 869.991 1571.71 874.896 L 1578.93 883.547 C 1579.79 891.952 1580.31 895.495 1587.72 899.954 C 1602.03 908.23 1596.54 914.235 1591.04 927.116 C 1586.09 919.634 1583.33 916.631 1576.52 911.322 C 1573.48 899.258 1572.15 897.567 1564.64 887.549 C 1563.09 868.977 1562.7 845.642 1561.59 826.459 C 1565.24 820.019 1566.53 818.527 1573.34 815.764 z"/>
<path transform="translate(0,0)" fill="rgb(254,102,0)" d="M 1608.84 711.78 C 1611.82 712.302 1613.08 714.371 1615.69 716.426 C 1632.56 729.749 1633.02 761.365 1627.13 780.156 C 1627.23 779.856 1618.2 784.524 1615.41 788.071 C 1609.62 768.402 1604.5 757.238 1589.98 742.631 C 1591.99 732.466 1592.94 727.043 1598.04 717.919 L 1608.84 711.78 z"/>
<path transform="translate(0,0)" fill="rgb(254,102,0)" d="M 1476 708.281 C 1480.72 708.249 1485.86 711.78 1489.38 714.874 C 1520.4 742.108 1499.17 746.571 1486.07 764.037 L 1485.17 765.252 C 1482.88 768.901 1483.58 768.977 1480.3 770.806 C 1451.91 767.071 1460.54 722.897 1476 708.281 z"/>
<path transform="translate(0,0)" fill="rgb(254,102,0)" d="M 1484.46 814.296 C 1490.16 813.748 1519.34 811.971 1521.37 816.842 C 1528.48 833.963 1521.48 871.711 1520.34 890.77 C 1513.98 898.713 1512.08 901.106 1509.75 911.371 L 1498.92 920.99 L 1498.14 921.293 L 1496.76 920.251 C 1490.86 888.075 1525.87 891.67 1513.83 842.211 C 1496.78 848.416 1501.41 844.096 1492.14 829.096 C 1489.01 824.024 1486.11 820.159 1484.46 814.296 z"/>
<path transform="translate(0,0)" fill="rgb(254,102,0)" d="M 1531.53 768.358 L 1533.77 769.315 L 1534.28 771.46 C 1531.73 779.394 1529.88 786.099 1525.41 793.224 C 1522.47 794.527 1517.01 793.941 1513.56 793.843 C 1511.14 793.395 1512.2 793.948 1510.43 792.117 C 1510.82 781.959 1523.52 773.07 1531.53 768.358 z"/>
<path transform="translate(0,0)" fill="rgb(254,102,0)" d="M 1560.07 767.962 L 1570.95 769.405 C 1574.4 777.96 1584.47 786.651 1579.36 792.981 C 1576.2 793.357 1570.79 794.415 1568.14 793.372 C 1564.57 788.028 1565.98 782.627 1563.4 777.147 C 1562.57 775.386 1558.47 774.728 1557.9 770.52 L 1560.07 767.962 z"/>
<path transform="translate(0,0)" fill="rgb(254,102,0)" d="M 1499.27 950.734 C 1503.85 950.275 1509.95 948.872 1513.11 952.641 C 1511.6 955.959 1511.24 955.395 1507.75 957.868 C 1505.06 960.216 1504.94 960.437 1501.64 962.156 L 1499.67 961.49 C 1498.18 957.903 1498.92 954.7 1499.27 950.734 z"/>
<path transform="translate(0,0)" fill="rgb(254,102,0)" d="M 1573.22 953.955 L 1587.86 953.949 C 1587.38 958.21 1586.64 962.856 1586.05 967.141 C 1581.95 964.122 1575.45 959.887 1572.6 956.008 L 1573.22 953.955 z"/>
<path transform="translate(0,0)" fill="rgb(254,254,254)" d="M 1531.81 996.775 C 1533.99 996.577 1536.17 996.424 1538.36 996.316 C 1554.7 995.566 1567.61 1001.14 1579.54 1011.91 C 1578.29 1027.26 1575.85 1044.01 1568.27 1057.59 C 1565.78 1050.63 1563.41 1043.44 1561.02 1036.43 C 1560.07 1047.96 1562.28 1073.53 1545.74 1072.84 C 1543.24 1069.95 1544.05 1068.74 1543.66 1063.91 C 1542.04 1056.24 1541.07 1045.1 1540.19 1037.22 C 1538.34 1045.5 1536.85 1065.4 1529.67 1069.47 C 1516.61 1067.41 1520.72 1046.53 1521.01 1036.6 C 1518.04 1041.05 1515.15 1045.91 1512.31 1050.48 C 1507.09 1034.83 1505.86 1025.62 1507.13 1009.06 C 1515.12 1001.94 1521.78 999.191 1531.81 996.775 z"/>
<path transform="translate(0,0)" fill="rgb(254,254,254)" d="M 1649 1359.8 C 1660.88 1361.24 1671.08 1369.49 1681.83 1375.81 C 1687.89 1386.25 1688.33 1391.21 1690.48 1402.94 L 1697.82 1408.79 C 1696.83 1417.68 1694.42 1429.68 1692.89 1438.74 C 1688.88 1424.53 1688.95 1412.43 1677.15 1402.99 C 1675.61 1394.69 1674.56 1390.23 1670.46 1382.88 L 1656.05 1379.63 C 1659.99 1386.96 1663.63 1393.61 1663.79 1402.1 C 1663.86 1405.69 1663.95 1406.02 1665.88 1408.91 C 1678.42 1421.51 1676.17 1430.26 1675.71 1446.64 L 1666.64 1456.69 C 1666.67 1451.23 1666.68 1445.78 1666.65 1440.32 C 1666.54 1421.24 1666.97 1417.27 1653.41 1409.38 C 1651.75 1408.41 1645.2 1388.29 1640.31 1383.45 C 1635.51 1383.22 1626.89 1389.04 1619.27 1390.63 C 1613.28 1388.51 1617.9 1379.21 1619.67 1374.28 C 1622.29 1372.12 1624.89 1369.65 1627.41 1367.34 C 1638.19 1365.96 1639.83 1364.98 1649 1359.8 z"/>
<path transform="translate(0,0)" fill="rgb(254,254,254)" d="M 1410.97 1395.12 C 1414.95 1395.23 1416.86 1396.02 1419.41 1398.84 C 1419.98 1403.41 1417.91 1406.46 1415.91 1410.79 C 1440.28 1437.54 1426.06 1463.59 1412.19 1491.96 C 1412.21 1482.57 1414.42 1453.2 1417.21 1444.66 C 1413.05 1441.76 1408.85 1438.91 1404.63 1436.09 C 1401.65 1440.78 1385.54 1492.32 1384.29 1499.04 C 1382.34 1478.14 1385.12 1441.04 1390.39 1420.95 C 1393.68 1408.39 1399.91 1401.17 1410.97 1395.12 z"/>
<path transform="translate(0,0)" fill="rgb(254,254,254)" d="M 1376.08 1389.4 C 1376.21 1389.91 1373.07 1407.37 1372.72 1410.13 C 1374.75 1411.46 1378.82 1413.52 1379.75 1415.51 C 1385.11 1426.99 1381.22 1442.69 1377.97 1454.18 C 1376.18 1447.99 1373.29 1435.03 1366.71 1433.18 C 1359.27 1439.27 1360.89 1471.34 1361.2 1481.41 C 1361.79 1490.89 1358.17 1493.22 1351.84 1500.77 C 1346.14 1463.08 1349.61 1426.47 1364.3 1391.27 L 1376.08 1389.4 z"/>
<path transform="translate(0,0)" fill="rgb(254,254,254)" d="M 1433.26 1298.09 C 1452.3 1304.36 1457.22 1320.43 1469.48 1335.15 C 1473.93 1340.49 1485.88 1361.37 1487.11 1367.9 C 1488.41 1374.83 1484.57 1392.2 1479.81 1397.65 C 1477.64 1395.76 1478.15 1394.56 1477.47 1390.91 C 1477.26 1387.79 1473.93 1371.41 1473.72 1372.55 C 1476.21 1358.95 1481.36 1356.45 1464.37 1352.33 C 1458.57 1350.92 1443.78 1323.88 1439.21 1321.19 C 1434.78 1320.82 1429.12 1324.26 1424.83 1326.32 C 1419.49 1320.39 1428.78 1302.8 1433.26 1298.09 z"/>
<path transform="translate(0,0)" fill="rgb(254,254,254)" d="M 1635.76 1316.96 C 1636.07 1317.05 1636.38 1317.13 1636.69 1317.21 C 1648.74 1323.22 1661.65 1318.53 1673.9 1330.3 C 1683.22 1339.26 1683.73 1346.39 1684.28 1358.09 C 1667.28 1348.11 1668.75 1340.75 1652.16 1338.67 C 1647.99 1340.29 1640.53 1342.66 1636.18 1343.95 C 1632.42 1345.05 1635.56 1340.76 1631.14 1337.91 C 1622.97 1339.31 1612.34 1349.5 1607.08 1355.92 L 1612.8 1329.38 C 1619.49 1324.57 1628.24 1320.79 1635.76 1316.96 z"/>
<path transform="translate(0,0)" fill="rgb(254,254,254)" d="M 1855.98 1167.49 C 1862.7 1167.29 1864.29 1167.81 1870.33 1170.98 C 1878.79 1175.41 1879.51 1176.76 1886.91 1170.88 C 1889.21 1172.05 1895.59 1178.8 1898.77 1181.39 L 1899.68 1182.12 C 1900.59 1189.24 1903.89 1201.78 1900.67 1207.19 L 1898.05 1207.54 C 1893.1 1205.58 1890.8 1203.16 1886.99 1199.49 C 1880.91 1193.62 1881.13 1193.3 1881.09 1185.25 L 1881.54 1182.85 L 1880.09 1180.95 L 1876.91 1180.71 C 1871.04 1183.45 1859.11 1187.09 1857.2 1191.16 C 1858.22 1193.96 1858.4 1194.41 1858.86 1197.33 C 1856.93 1199.99 1850.94 1205.08 1847.67 1205.27 C 1836.3 1205.96 1837.19 1186.08 1836.92 1179.59 L 1847.4 1176.35 C 1850.81 1171.69 1851.38 1170.91 1855.98 1167.49 z"/>
<path transform="translate(0,0)" fill="rgb(254,254,254)" d="M 1867.54 1115.96 L 1869.34 1115.81 C 1872.08 1118.44 1873.07 1127.69 1873.89 1132.1 C 1877.23 1128.91 1878.89 1126.82 1882.7 1123.55 C 1894.48 1121.37 1900.22 1146.83 1902.09 1155.51 C 1890.18 1145.42 1884.03 1142.52 1869.62 1137.02 C 1868.09 1136.55 1864.16 1135.33 1862.94 1135.96 C 1853.34 1140.91 1841.22 1151.89 1834.92 1159.87 C 1832.31 1148.61 1832.11 1145.84 1832.64 1134.77 C 1837.6 1130.87 1841.05 1127.06 1845.39 1122.54 C 1855.47 1122.47 1858.8 1120.42 1867.54 1115.96 z"/>
<path transform="translate(0,0)" fill="rgb(254,254,254)" d="M 1442.83 1257.84 C 1454.2 1261.78 1460.01 1258.39 1468.08 1268.98 C 1486.86 1293.59 1495.97 1307.45 1494.01 1339.29 L 1490.68 1328.7 C 1485.05 1312.72 1481.03 1312.34 1471.16 1299.46 C 1469.48 1297.28 1465.75 1287.98 1464.5 1284.9 C 1458.69 1282.19 1455.81 1280.76 1450.33 1277.31 C 1445.47 1279.46 1438.91 1283.87 1434.77 1279.63 C 1434.37 1273.67 1440.1 1263.59 1442.83 1257.84 z"/>
<path transform="translate(0,0)" fill="rgb(254,254,254)" d="M 1752.88 1156.62 C 1773.17 1159.34 1766.39 1167.07 1772.57 1177.23 C 1780.05 1189.54 1788.75 1199.73 1789.56 1215.69 C 1789.77 1219.85 1784.67 1222.09 1782.8 1227.06 C 1783.22 1231.89 1789.29 1237.94 1792.95 1243.33 C 1792.99 1255.97 1791.67 1270.05 1790.77 1282.76 C 1790.67 1287.75 1789.86 1290.43 1788.74 1295.2 C 1782.67 1262.66 1781.3 1231.95 1770.75 1199.73 C 1764.19 1179.72 1766.95 1175.11 1752.88 1156.62 z"/>
<path transform="translate(0,0)" fill="rgb(254,254,254)" d="M 1648.81 1270.21 C 1650.07 1270.71 1650.64 1270.93 1651.59 1271.98 C 1657.25 1278.33 1663.44 1281.17 1670.94 1284.91 C 1674.26 1290.9 1681.02 1305.71 1678.96 1312.4 L 1677.33 1312.65 C 1670.87 1309.25 1666.06 1302.68 1661.87 1296.85 C 1659.14 1297.49 1658.06 1299.31 1655.66 1301.58 C 1652.29 1300.7 1648.95 1298.52 1645.86 1296.66 C 1637.54 1291.64 1633.35 1303.37 1623.7 1306.28 L 1622.37 1305.31 C 1620.94 1292.6 1631.89 1284.83 1640.92 1278.71 C 1642.66 1277.54 1647.21 1272.02 1648.81 1270.21 z"/>
<path transform="translate(0,0)" fill="rgb(254,254,254)" d="M 1770.3 1244.23 C 1772.17 1249.79 1772.92 1282.79 1773.73 1290.51 C 1774.16 1294.6 1772.38 1303.06 1773.96 1308.1 C 1775.74 1309.22 1777.43 1309.97 1779.39 1310.73 C 1781.53 1316.15 1772.77 1340.09 1769.07 1344.91 C 1769.76 1338.61 1771.75 1319.8 1767.89 1316.56 C 1755.97 1306.55 1764.95 1296.93 1762.61 1285.06 C 1757.84 1260.89 1752.24 1264.92 1770.3 1244.23 z"/>
<path transform="translate(0,0)" fill="rgb(254,254,254)" d="M 1854.29 1310.78 C 1866.87 1310.79 1863.78 1318.68 1875.6 1323.72 C 1879.43 1332.74 1882.87 1354.75 1876.85 1363.13 L 1875.05 1362.91 L 1871.93 1358.28 C 1865.78 1349.09 1870 1346.71 1865.26 1338.3 C 1859.67 1328.39 1845.85 1339.85 1841.62 1332.14 C 1841.45 1326.13 1843.8 1321.62 1846 1315.92 C 1848.86 1314.28 1851.51 1312.55 1854.29 1310.78 z"/>
<path transform="translate(0,0)" fill="rgb(254,254,254)" d="M 1338.42 1417.04 C 1347.27 1426.14 1346.94 1443.36 1346.66 1455.19 C 1343.48 1452.26 1340.06 1449.82 1336.61 1447.22 C 1333.74 1461.31 1335.76 1481.9 1335.1 1497.8 L 1334.74 1499.57 L 1333.22 1500.45 C 1323.63 1493.97 1325.89 1478.73 1325.08 1469.31 C 1323.1 1446.42 1328.14 1436.15 1338.42 1417.04 z"/>
<path transform="translate(0,0)" fill="rgb(254,254,254)" d="M 1859.04 1215.17 C 1869.03 1214.77 1870.78 1215.38 1879.67 1219.21 C 1881.32 1228.93 1886.68 1234.75 1889.69 1243.95 C 1890.77 1247.25 1891.21 1256.01 1891.46 1259.81 L 1879.82 1249.58 C 1877.82 1246.67 1879.48 1242.74 1877.54 1239.97 C 1871.23 1230.95 1857.4 1238.03 1850.41 1242.26 C 1847.93 1235.57 1844.89 1230.34 1846.38 1223.76 C 1848.26 1220.59 1849.75 1220.18 1852.99 1218.43 L 1859.04 1215.17 z"/>
<path transform="translate(0,0)" fill="rgb(254,254,254)" d="M 1856.6 1260.42 L 1861.65 1260.6 C 1864.76 1262.04 1866.13 1265.81 1867.82 1269.02 C 1893.44 1277.62 1884.73 1290.92 1884.29 1315.09 C 1882.47 1308.87 1881.17 1304.23 1878.62 1298.25 C 1867.36 1275.8 1859.24 1279.26 1846.35 1296.5 C 1849.98 1284.92 1847.54 1265.7 1856.6 1260.42 z"/>
<path transform="translate(0,0)" fill="rgb(254,254,254)" d="M 1839.89 1028.01 C 1843.55 1027.87 1843.85 1027.64 1847.4 1028.86 C 1849.36 1031.51 1848.56 1031.89 1849.67 1034.31 C 1852.62 1040.76 1857.38 1040.86 1862.94 1041.93 C 1865.66 1042.45 1869.68 1058.35 1870.59 1061.5 L 1856.91 1055.49 C 1842.01 1050.51 1843.4 1054.77 1830.06 1057.57 L 1828.49 1056.41 C 1827.25 1047.09 1832.33 1033.68 1839.89 1028.01 z"/>
<path transform="translate(0,0)" fill="rgb(254,254,254)" d="M 1565.31 1185.49 C 1569.29 1186.96 1577.78 1190.15 1581.95 1192.3 C 1588.39 1195.63 1598.45 1216.25 1601.58 1223.33 C 1602.15 1224.62 1601.19 1225.47 1600.32 1226.99 C 1586.71 1235.28 1583.46 1228.32 1578.09 1215.08 C 1574.4 1205.98 1565.68 1194.19 1565.31 1185.49 z"/>
<path transform="translate(0,0)" fill="rgb(254,254,254)" d="M 1422.02 1345.68 C 1431.72 1348.52 1446.64 1360.56 1450.22 1370.28 C 1451.32 1373.28 1449.03 1385.14 1448.32 1388.66 L 1447.3 1388.19 C 1441.01 1380.64 1431.19 1371.95 1422.35 1367.61 C 1419.52 1367.97 1418.85 1368.17 1416.05 1367.91 L 1415.21 1366.07 C 1415.37 1358.59 1418.4 1352.06 1422.02 1345.68 z"/>
<path transform="translate(0,0)" fill="rgb(254,254,254)" d="M 1837.85 1349.39 C 1840.47 1350.22 1850.09 1355.7 1849.97 1357.6 C 1849.03 1373.14 1860.69 1373.14 1865.14 1384.98 C 1866.38 1388.29 1865.96 1393.95 1864.44 1396.71 C 1861.41 1396.39 1859.34 1393.55 1856.97 1391.22 C 1852.75 1387.83 1848.2 1385.1 1843.64 1382.19 C 1843.74 1376.51 1844.3 1371.52 1838.27 1369.07 C 1832.37 1370.35 1828.33 1374.55 1823.38 1378.45 C 1828.41 1369.18 1832.18 1357.35 1837.85 1349.39 z"/>
<path transform="translate(0,0)" fill="rgb(254,254,254)" d="M 1626.63 1179.12 L 1628.9 1178.98 C 1633.68 1183.01 1632.17 1191.21 1638.65 1196.46 C 1642.18 1199.33 1650.48 1205.71 1648.94 1210.39 C 1644.11 1213.88 1639.89 1213.25 1634.14 1212.61 C 1621.92 1206.19 1615.23 1196.13 1607.19 1185.35 C 1615.27 1183.46 1619.13 1182.39 1626.63 1179.12 z"/>
<path transform="translate(0,0)" fill="rgb(254,254,254)" d="M 1847.25 1075.42 C 1863.59 1080.22 1865.21 1085.91 1870.47 1100.75 C 1861.34 1098.29 1856.45 1096.21 1847.11 1098.26 C 1842.81 1102.07 1840.32 1107.56 1834.41 1108.79 L 1832.76 1107.37 C 1831.47 1102.35 1832.69 1097.19 1833.4 1091.92 C 1837.74 1085.93 1841.48 1080.03 1847.25 1075.42 z"/>
<path transform="translate(0,0)" fill="rgb(254,254,254)" d="M 1736.27 1236.86 C 1741.85 1246.11 1741.08 1264.96 1739.66 1275.4 L 1747.57 1285.11 C 1747.51 1295.49 1744.86 1309.04 1743 1319.46 L 1741.88 1319.66 C 1740.76 1307.3 1739.18 1301.79 1734.96 1290.13 L 1737.65 1279.83 C 1723.3 1262.97 1727.8 1256 1736.27 1236.86 z"/>
<path transform="translate(0,0)" fill="rgb(254,254,254)" d="M 1458.69 1062.51 C 1463.19 1064.45 1466.42 1069.23 1469.62 1073.08 C 1470.89 1088.87 1481.41 1102.22 1484.09 1123.73 C 1463.48 1114.9 1459.11 1081.75 1458.69 1062.51 z"/>
<path transform="translate(0,0)" fill="rgb(254,254,254)" d="M 1654.04 1144.78 C 1656.5 1146.81 1661.27 1164.82 1664.82 1169.23 C 1666.35 1171.14 1670.87 1179.2 1671.88 1181.33 L 1670.6 1183 C 1666.32 1183.82 1664.4 1182.99 1660.02 1182 C 1655.12 1178.8 1643.77 1165.74 1641.58 1160.07 C 1637.1 1148.45 1645.37 1146.89 1654.04 1144.78 z"/>
<path transform="translate(0,0)" fill="rgb(254,254,254)" d="M 1547.67 1210.19 L 1548.99 1210.84 C 1549.07 1211.81 1549.22 1213.01 1548.97 1213.9 C 1542.06 1238.79 1539.04 1244.67 1518.41 1257.8 L 1518.07 1257.76 L 1517.24 1256.62 C 1525.11 1239.95 1529.87 1229.8 1534.58 1211.96 C 1538.46 1211.13 1543.64 1210.67 1547.67 1210.19 z"/>
<path transform="translate(0,0)" fill="rgb(254,254,254)" d="M 1601.25 1084.94 C 1605.82 1096.39 1604.19 1114.56 1607.05 1126.3 C 1607.86 1129.61 1615.09 1137.09 1617.6 1143.21 C 1616.42 1146.33 1616.45 1145.48 1612.72 1147.64 C 1586.8 1148.33 1597.33 1099.77 1601.25 1084.94 z"/>
<path transform="translate(0,0)" fill="rgb(254,254,254)" d="M 1698.15 1319.19 C 1714.61 1333.61 1715.06 1384.91 1711.64 1405.22 C 1709.88 1403.37 1705.91 1391.99 1704.25 1388.35 C 1707.46 1366.93 1701.39 1341.16 1698.15 1319.19 z"/>
<path transform="translate(0,0)" fill="rgb(254,254,254)" d="M 1513.52 1189.7 C 1518.5 1189.69 1518.8 1188.84 1522.21 1191.09 C 1525.3 1201.48 1517.58 1211.19 1511.68 1219.26 C 1509.32 1222.48 1503.99 1224.41 1500.24 1225.98 C 1496.6 1226.21 1494.32 1226.66 1490.86 1225.48 C 1490.39 1222.66 1502.4 1208.67 1504.83 1204.62 C 1507.79 1199.73 1510.78 1194.78 1513.52 1189.7 z"/>
<path transform="translate(0,0)" fill="rgb(254,254,254)" d="M 1611.55 1061.93 C 1633.25 1079.8 1623.44 1088.28 1632.2 1107.27 L 1635.75 1114.95 C 1613.24 1113.74 1612.89 1078.53 1611.55 1061.93 z"/>
<path transform="translate(0,0)" fill="rgb(254,254,254)" d="M 1481.68 1180.42 C 1483.75 1180.8 1484.29 1181.05 1486.29 1181.74 C 1488.65 1186.38 1482.91 1217.86 1477.59 1222.28 C 1474.42 1224.9 1470.81 1225.07 1467.11 1225.26 C 1464.22 1224.8 1461.97 1224.88 1460.03 1222.87 C 1472.87 1206.97 1475.72 1200.39 1481.68 1180.42 z"/>
<path transform="translate(0,0)" fill="rgb(254,254,254)" d="M 1443.76 844.672 C 1443.65 847.015 1443.87 846.048 1443.2 848.04 C 1436.58 867.771 1439.88 890.228 1434.87 912.358 L 1433.99 911.297 C 1428.72 882.989 1426.32 877.958 1434 850.114 L 1443.76 844.672 z"/>
<path transform="translate(0,0)" fill="rgb(254,254,254)" d="M 1769.86 1120.91 C 1778.03 1122.7 1781.15 1131.33 1786.8 1137.04 C 1800.01 1150.38 1799.21 1159.22 1798.14 1176.69 C 1793.17 1168.63 1771.53 1128.51 1769.86 1120.91 z"/>
<path transform="translate(0,0)" fill="rgb(254,254,254)" d="M 1680.09 1119.67 C 1683.58 1120.95 1703.62 1140.41 1704.83 1143.98 C 1702.82 1146.21 1700.99 1146.28 1698.04 1146.98 C 1689 1145.98 1674.86 1137.92 1671.16 1129.45 C 1671.77 1125.04 1675.71 1123.32 1680.09 1119.67 z"/>
<path transform="translate(0,0)" fill="rgb(254,254,254)" d="M 1630.37 1403.18 C 1638.81 1404.49 1636.83 1413.21 1640.42 1418.64 C 1641.3 1419.98 1644.35 1420.03 1646.04 1420.33 C 1654.16 1427.38 1651.78 1445.51 1645.55 1453.71 C 1642.97 1444.82 1643.86 1434.08 1640.72 1426.61 C 1638.03 1420.2 1627.34 1418.63 1625.26 1409.36 C 1626.26 1405.01 1625.69 1406.51 1630.37 1403.18 z"/>
<path transform="translate(0,0)" fill="rgb(254,254,254)" d="M 1448.77 1390.17 C 1473.73 1391.55 1467.38 1419.23 1464.17 1436.25 C 1463.85 1437.58 1464.12 1436.75 1463.04 1438.61 C 1457.31 1427.12 1458.04 1405.11 1448.77 1390.17 z"/>
<path transform="translate(0,0)" fill="rgb(254,254,254)" d="M 1895.31 1368.44 C 1906.13 1377.15 1903.64 1395.76 1906.2 1408.06 C 1907.35 1413.58 1906.16 1415.56 1904.15 1420.95 C 1904.35 1421.14 1891.59 1388.4 1890.42 1385.51 L 1895.31 1368.44 z"/>
<path transform="translate(0,0)" fill="rgb(254,254,254)" d="M 1747.35 1183.15 C 1750.1 1185.37 1752.02 1187.85 1752.29 1191.41 C 1753.46 1206.76 1762 1218.54 1753.08 1232.31 L 1751.44 1232.55 C 1744.06 1224.97 1744.11 1192.67 1747.35 1183.15 z"/>
<path transform="translate(0,0)" fill="rgb(254,254,254)" d="M 1463.27 1149.38 C 1465.48 1149.52 1468.88 1149.67 1469.43 1152.28 C 1471.76 1163.35 1462.55 1179.87 1457.57 1189.07 L 1455.85 1191.2 C 1453.15 1187.35 1456.29 1165.56 1457.12 1160.35 C 1458.34 1152.66 1457.95 1153.25 1463.27 1149.38 z"/>
<path transform="translate(0,0)" fill="rgb(254,254,254)" d="M 1665.3 950.971 C 1667.77 954.575 1670.26 960.687 1673.65 964.983 C 1678.21 970.75 1681.59 986.487 1681.81 993.951 C 1664.29 992.563 1663.93 963.982 1665.3 950.971 z"/>
<path transform="translate(0,0)" fill="rgb(254,254,254)" d="M 1931.39 794.428 C 1937.5 796.553 1942.64 825.387 1943.85 832.078 L 1937.74 823.151 C 1930.12 817.3 1924.56 807.45 1918.69 799.299 L 1919.34 798.178 C 1923.63 795.728 1926.61 795.428 1931.39 794.428 z"/>
<path transform="translate(0,0)" fill="rgb(254,254,254)" d="M 1887.67 766.304 C 1893.4 767.946 1900 777.345 1903.75 782.107 C 1895.97 785.071 1894.44 786.966 1886.76 782.666 C 1882.43 783.723 1877.19 787.899 1873.34 782.016 C 1874.89 775.164 1882.05 770.803 1887.67 766.304 z"/>
<path transform="translate(0,0)" fill="rgb(254,254,254)" d="M 1578.61 1112.42 L 1579.36 1113.17 C 1580.2 1116.26 1584.59 1152.42 1584.13 1153.56 L 1581.13 1151.77 C 1562.99 1137.93 1568.87 1129.56 1578.61 1112.42 z"/>
<path transform="translate(0,0)" fill="rgb(254,254,254)" d="M 1800.08 1217.46 C 1804.29 1218.35 1804.52 1217.6 1807.27 1221.67 C 1813.21 1230.46 1811.37 1253.04 1809.03 1262.83 C 1805.27 1250.58 1800.51 1237.41 1797.59 1224.92 C 1796.73 1221.24 1798.21 1220.12 1800.08 1217.46 z"/>
<path transform="translate(0,0)" fill="rgb(254,254,254)" d="M 1645.29 859.13 C 1649.85 868.37 1653.22 882.694 1651.57 892.88 C 1650.25 901.021 1650.66 901.046 1645.15 905.226 C 1644.47 905.463 1642.62 905.813 1641.84 905.981 C 1639.69 900.557 1644.26 866.958 1645.29 859.13 z"/>
<path transform="translate(0,0)" fill="rgb(254,254,254)" d="M 1546.51 1285.16 C 1547.38 1285 1546.79 1285.04 1548.24 1285.58 C 1550.74 1296.82 1554.63 1310.9 1536.63 1305.36 L 1528.15 1285.58 C 1535.78 1286.19 1538.86 1286.6 1546.51 1285.16 z"/>
<path transform="translate(0,0)" fill="rgb(254,254,254)" d="M 1675.5 1030.32 C 1681.75 1032.11 1689.34 1047.05 1689.47 1052.94 C 1686.63 1054.04 1688.15 1053.72 1684.16 1052.11 C 1680.94 1050.99 1677.35 1052.66 1672.57 1049.78 C 1668.43 1047.28 1667.85 1039.89 1666.76 1034.77 C 1669.53 1033.28 1672.67 1031.76 1675.5 1030.32 z"/>
<path transform="translate(0,0)" fill="rgb(254,254,254)" d="M 1440.77 1110.37 C 1444.92 1112.19 1446.5 1112.5 1449.46 1115.73 C 1451.17 1123.04 1444.34 1129.1 1439.71 1137.74 C 1438.64 1140.43 1438.52 1140.65 1436.91 1143.06 L 1435.81 1142.23 C 1434.09 1136.23 1433.71 1129.99 1433.05 1123.75 C 1435.57 1118.21 1437.49 1115.38 1440.77 1110.37 z"/>
<path transform="translate(0,0)" fill="rgb(254,254,254)" d="M 1554.31 1118.87 C 1559.46 1124.74 1551.63 1156.65 1545.67 1163.21 C 1544.48 1154.6 1543.45 1145.98 1542.58 1137.34 C 1548.3 1130.66 1550.45 1126.57 1554.31 1118.87 z"/>
<path transform="translate(0,0)" fill="rgb(254,254,254)" d="M 1911.34 1330.21 C 1919.76 1334.34 1917.76 1365.82 1912.97 1371.36 C 1910.31 1365.21 1907.74 1358.58 1905.19 1352.35 C 1907.38 1344.2 1908.48 1338.38 1911.34 1330.21 z"/>
<path transform="translate(0,0)" fill="rgb(254,254,254)" d="M 1512.26 1112.48 C 1516.37 1114.31 1520.3 1116.58 1524.25 1118.75 C 1525.47 1129.55 1526.91 1140.33 1527.04 1151.19 C 1518.27 1144.95 1512.95 1122.9 1512.26 1112.48 z"/>
<path transform="translate(0,0)" fill="rgb(254,254,254)" d="M 1574.47 1269.69 L 1579.9 1270.05 C 1584.94 1274.55 1587.47 1290.01 1588.02 1296.7 L 1586.45 1298.29 C 1578.42 1293.72 1564.54 1277.49 1574.47 1269.69 z"/>
<path transform="translate(0,0)" fill="rgb(254,254,254)" d="M 1488.45 1073.15 C 1492.07 1074.73 1497.86 1082.21 1500.72 1085.53 L 1499.47 1113.13 L 1498.65 1113.34 C 1494.19 1108.32 1489.47 1080.59 1488.45 1073.15 z"/>
<path transform="translate(0,0)" fill="rgb(254,254,254)" d="M 1729.81 1149.41 C 1739.01 1158.9 1738.73 1173.19 1735.2 1184.93 L 1734.25 1185.49 L 1732.58 1184.75 C 1726.98 1175.64 1727.59 1159.55 1729.81 1149.41 z"/>
<path transform="translate(0,0)" fill="rgb(254,254,254)" d="M 1653.78 1066.85 C 1657.41 1068.61 1666.7 1080.24 1664.36 1085.34 L 1659.04 1086.31 C 1641.27 1085.36 1645.05 1076.56 1653.78 1066.85 z"/>
<path transform="translate(0,0)" fill="rgb(254,254,254)" d="M 1708.24 1093.33 C 1711.92 1094.98 1718.49 1103.02 1719.91 1107.2 L 1719.03 1108.96 L 1713.96 1110.54 C 1708.05 1109.6 1702.4 1108.8 1701.11 1102.45 C 1702.11 1098.56 1705.27 1096.2 1708.24 1093.33 z"/>
<path transform="translate(0,0)" fill="rgb(254,254,254)" d="M 1441.05 783.271 L 1442.06 784.289 C 1443.06 788.81 1442.62 800.741 1442.57 805.979 L 1434.55 814.375 L 1433.38 812.653 C 1432.29 798.961 1434.4 795.12 1441.05 783.271 z"/>
<path transform="translate(0,0)" fill="rgb(7,28,89)" d="M 640.801 848.605 C 684.135 849.609 730.177 848.53 773.894 848.819 C 773.972 854.06 773.873 864.963 773.99 869.627 C 774.333 883.313 755.23 870.496 740.861 886.039 C 729.332 898.51 725.635 913.773 723.736 930.596 C 720.688 957.598 721.359 986.128 721.371 1013.33 L 721.446 1130.48 L 721.418 1519.8 C 693.93 1520.2 696.76 1509.41 684.475 1486.25 C 680.328 1479.95 670.702 1460.84 666.688 1453.37 L 628.775 1382.88 L 485.659 1116.94 L 442.064 1035.81 C 434.996 1022.61 424.529 1001.64 416.817 989.849 C 421.377 1037.07 419.973 1082 419.971 1129.39 L 419.948 1324.19 C 419.944 1364.3 418.536 1407.32 422.77 1446.97 C 424.166 1460.04 427.676 1476.82 438.885 1484.68 C 446.689 1490.15 461.138 1492.4 470.326 1490.65 L 470.286 1517.14 L 468.306 1518.74 C 460.73 1520.14 340.262 1519.71 331.945 1518.47 C 330.701 1515.17 331.349 1496.62 331.791 1492.51 C 334.517 1489.95 344.315 1490.14 348.738 1489.69 C 376.599 1486.83 379.534 1452.88 381.289 1429.9 C 384.343 1389.92 383.749 1348.36 383.75 1307.89 L 383.814 1140.11 C 384.194 1096.34 383.953 1052.58 383.091 1008.82 C 382.779 982.167 384.73 955.346 380.054 928.974 C 376.388 908.302 367.75 884.805 344.751 879.14 C 341.13 878.248 331.417 877.257 329.782 875.393 C 327.422 872.702 328.323 853.874 328.366 849.726 C 337.823 848.837 360.86 849.481 371.135 849.477 L 456.105 849.413 C 463.799 861.761 473.858 882.107 481 895.458 L 529.045 985.227 L 693.639 1292.28 C 688.565 1250.59 689.851 1214.07 689.846 1172.14 L 689.86 1019.5 C 689.867 988.971 691.257 957.132 687.74 926.908 C 684.008 894.835 675.553 877.713 640.802 875.64 L 640.801 848.605 z"/>
<path transform="translate(0,0)" fill="rgb(7,28,89)" d="M 1013.23 836.889 C 1020.95 836.844 1026.18 835.577 1035.15 836.121 C 1064.83 837.919 1094.11 847.269 1118.68 864.252 C 1124.66 867.855 1137.72 878.48 1144.12 879.722 C 1157.61 882.343 1158.78 843.33 1159.48 835.961 L 1174.62 835.963 C 1174.51 849.592 1175.93 863.631 1176.3 877.284 C 1177.96 939.148 1183.89 1002.18 1184.66 1063.96 L 1170.07 1063.96 C 1164.33 1010.35 1144.17 958.967 1104.91 921.028 C 1061.94 879.512 1002.71 874.612 963.05 924.359 C 897.953 1006.02 895.081 1139.63 900.292 1239.48 C 904.099 1312.43 926.091 1407.51 981.902 1457.59 C 1034.1 1502.31 1077.72 1482.67 1117.4 1436.16 L 1117.39 1323.53 C 1117.38 1303.82 1118.01 1278.94 1116.92 1259.56 C 1116.82 1232.12 1114.27 1200.12 1080.02 1199.33 C 1075.31 1199.22 1069.96 1199.62 1066.86 1196.49 C 1065.43 1190.02 1066.06 1178.16 1066.16 1171.11 L 1233.92 1171.11 C 1233.96 1174.56 1234.2 1195.17 1233.35 1196.18 C 1228.18 1202.37 1209.32 1197.15 1201.72 1206.66 C 1195.4 1214.55 1192.87 1221.69 1191.71 1231.32 C 1188.06 1261.69 1188.89 1292.8 1188.89 1323.34 L 1188.9 1462.88 C 1153.75 1495.41 1123.16 1524.71 1073.76 1532.23 C 1025.92 1539.51 972.239 1532.95 932.784 1503.65 C 867.048 1454.1 832.533 1368.09 818.997 1289.69 C 794.096 1145.47 834.128 864.801 1013.23 836.889 z"/>
<path transform="translate(0,0)" fill="rgb(7,28,89)" d="M 71.9561 849.098 L 262.829 849.087 L 262.829 876.687 C 213.187 875.522 209.842 906.189 208.625 948.605 C 207.624 983.455 208.483 1019.01 208.476 1053.92 L 208.472 1255.88 L 208.493 1368.37 C 208.499 1400.64 203.155 1454.36 224.667 1480.59 C 229.293 1486.23 253.898 1491.71 261.544 1491.61 L 262.572 1492.97 C 263.021 1497.36 263.739 1515.62 261.502 1518.84 L 71.9565 1518.84 C 71.9383 1510.09 71.6467 1499.42 72.2169 1490.84 C 125.035 1491.6 126.083 1458.08 127.486 1414.54 C 128.641 1378.69 127.707 1342.06 127.688 1306.16 L 127.717 1116.59 L 127.708 1003.95 C 127.698 978.814 128.701 952.754 125.872 927.782 C 121.393 888.26 111.689 876.507 71.9546 876.687 L 71.9561 849.098 z"/>
</svg>