<svg version="1.1" xmlns="http://www.w3.org/2000/svg" style="display:block" viewBox="124 832 2074 704" width="2074" height="704"><g transform="scale(1.7777777777777777,1)">
<path transform="translate(0,0)" fill="rgb(254,254,254)" d="M 640.801 848.605 C 684.135 849.609 730.177 848.53 773.894 848.819 C 773.972 854.06 773.873 864.963 773.99 869.627 C 774.333 883.313 755.23 870.496 740.861 886.039 C 729.332 898.51 725.635 913.773 723.736 930.596 C 720.688 957.598 721.359 986.128 721.371 1013.33 L 721.446 1130.48 L 721.418 1519.8 C 693.93 1520.2 696.76 1509.41 684.475 1486.25 C 680.328 1479.95 670.702 1460.84 666.688 1453.37 L 628.775 1382.88 L 485.659 1116.94 L 442.064 1035.81 C 434.996 1022.61 424.529 1001.64 416.817 989.849 C 421.377 1037.07 419.973 1082 419.971 1129.39 L 419.948 1324.19 C 419.944 1364.3 418.536 1407.32 422.77 1446.97 C 424.166 1460.04 427.676 1476.82 438.885 1484.68 C 446.689 1490.15 461.138 1492.4 470.326 1490.65 L 470.286 1517.14 L 468.306 1518.74 C 460.73 1520.14 340.262 1519.71 331.945 1518.47 C 330.701 1515.17 331.349 1496.62 331.791 1492.51 C 334.517 1489.95 344.315 1490.14 348.738 1489.69 C 376.599 1486.83 379.534 1452.88 381.289 1429.9 C 384.343 1389.92 383.749 1348.36 383.75 1307.89 L 383.814 1140.11 C 384.194 1096.34 383.953 1052.58 383.091 1008.82 C 382.779 982.167 384.73 955.346 380.054 928.974 C 376.388 908.302 367.75 884.805 344.751 879.14 C 341.13 878.248 331.417 877.257 329.782 875.393 C 327.422 872.702 328.323 853.874 328.366 849.726 C 337.823 848.837 360.86 849.481 371.135 849.477 L 456.105 849.413 C 463.799 861.761 473.858 882.107 481 895.458 L 529.045 985.227 L 693.639 1292.28 C 688.565 1250.59 689.851 1214.07 689.846 1172.14 L 689.86 1019.5 C 689.867 988.971 691.257 957.132 687.74 926.908 C 684.008 894.835 675.553 877.713 640.802 875.64 L 640.801 848.605 z"/>
<path transform="translate(0,0)" fill="rgb(254,254,254)" d="M 1013.23 836.889 C 1020.95 836.844 1026.18 835.577 1035.15 836.121 C 1064.83 837.919 1094.11 847.269 1118.68 864.252 C 1124.66 867.855 1137.72 878.48 1144.12 879.722 C 1157.61 882.343 1158.78 843.33 1159.48 835.961 L 1174.62 835.963 C 1174.51 849.592 1175.93 863.631 1176.3 877.284 C 1177.96 939.148 1183.89 1002.18 1184.66 1063.96 L 1170.07 1063.96 C 1164.33 1010.35 1144.17 958.967 1104.91 921.028 C 1061.94 879.512 1002.71 874.612 963.05 924.359 C 897.953 1006.02 895.081 1139.63 900.292 1239.48 C 904.099 1312.43 926.091 1407.51 981.902 1457.59 C 1034.1 1502.31 1077.72 1482.67 1117.4 1436.16 L 1117.39 1323.53 C 1117.38 1303.82 1118.01 1278.94 1116.92 1259.56 C 1116.82 1232.12 1114.27 1200.12 1080.02 1199.33 C 1075.31 1199.22 1069.96 1199.62 1066.86 1196.49 C 1065.43 1190.02 1066.06 1178.16 1066.16 1171.11 L 1233.92 1171.11 C 1233.96 1174.56 1234.2 1195.17 1233.35 1196.18 C 1228.18 1202.37 1209.32 1197.15 1201.72 1206.66 C 1195.4 1214.55 1192.87 1221.69 1191.71 1231.32 C 1188.06 1261.69 1188.89 1292.8 1188.89 1323.34 L 1188.9 1462.88 C 1153.75 1495.41 1123.16 1524.71 1073.76 1532.23 C 1025.92 1539.51 972.239 1532.95 932.784 1503.65 C 867.048 1454.1 832.533 1368.09 818.997 1289.69 C 794.096 1145.47 834.128 864.801 1013.23 836.889 z"/>
<path transform="translate(0,0)" fill="rgb(254,254,254)" d="M 71.9561 849.098 L 262.829 849.087 L 262.829 876.687 C 213.187 875.522 209.842 906.189 208.625 948.605 C 207.624 983.455 208.483 1019.01 208.476 1053.92 L 208.472 1255.88 L 208.493 1368.37 C 208.499 1400.64 203.155 1454.36 224.667 1480.59 C 229.293 1486.23 253.898 1491.71 261.544 1491.61 L 262.572 1492.97 C 263.021 1497.36 263.739 1515.62 261.502 1518.84 L 71.9565 1518.84 C 71.9383 1510.09 71.6467 1499.42 72.2169 1490.84 C 125.035 1491.6 126.083 1458.08 127.486 1414.54 C 128.641 1378.69 127.707 1342.06 127.688 1306.16 L 127.717 1116.59 L 127.708 1003.95 C 127.698 978.814 128.701 952.754 125.872 927.782 C 121.393 888.26 111.689 876.507 71.9546 876.687 L 71.9561 849.098 z"/>
</g></svg>
