<svg xmlns="http://www.w3.org/2000/svg" version="1.1" viewBox="435 573 1530 424" width="1530" height="424" style="display:block">
  <svg x="0" y="0" width="2400" height="1600" viewBox="0 0 2400 1600">
    
    <defs><mask id="hole" maskUnits="userSpaceOnUse">
      <rect x="0" y="0" width="2400" height="1600" fill="#fff"/>
      <path transform="translate(0,0)" fill="#000" d="M 844.151 710.168 C 863.594 708.975 879.324 711.156 895.267 723.62 C 928.301 749.447 931.707 804.967 906.201 837.048 C 893.22 853.374 877.712 859.55 857.56 861.901 C 852.275 861.949 846.995 861.585 841.766 860.812 C 813.108 856.303 792.147 839.07 775.543 816.293 C 777.838 792.185 786.014 758.075 799.723 738.387 C 811.769 721.087 824.016 714.053 844.151 710.168 z"/>
      <path transform="translate(0,0)" fill="#000" d="M 1438.98 710.238 C 1529.78 699.964 1547.89 841.568 1459.82 861.06 C 1368.85 876.58 1346.1 727.443 1438.98 710.238 z"/>
      <path transform="translate(0,0)" fill="#000" d="M 1150.08 736.238 C 1154.53 750.075 1158.32 765.331 1162.11 779.452 C 1155.48 773.211 1154.95 757.931 1151.26 750.052 L 1149.92 749.774 C 1145.3 756.3 1146.78 764.266 1141.02 769.301 C 1143.97 758.39 1146.88 747.042 1150.08 736.238 z"/>
    </mask></defs>
    <g mask="url(#hole)">
      <path transform="translate(0,0)" fill="rgb(20,168,0)" d="M 842.961 660.394 C 872.34 658.047 901.244 665.096 925.557 681.962 C 952.379 700.747 970.598 729.458 976.174 761.726 C 982.198 795.605 975.406 831.531 955.434 859.802 C 936.661 886.358 908 904.252 875.899 909.461 C 831.209 916.853 800.458 902.616 765.682 877.674 C 764.195 891.168 761.042 907.727 758.811 921.316 L 746.505 997.151 L 689.955 997.156 C 700.691 941.948 709.97 883.659 719.707 828.053 C 691.067 785.983 679.832 756.334 664.504 708.549 C 662.904 774.415 676.859 839.646 620.354 887.905 C 554.209 938.713 455.874 903.721 439.2 821.983 C 433.725 795.145 434.906 772.403 434.918 745.466 L 435.003 666.918 L 490.42 666.968 L 490.02 747.198 C 489.972 762.175 489.464 777.66 490.182 792.582 C 491.908 828.476 510.528 861.594 550.099 861.887 C 582.814 862.13 601.017 840.312 606.975 809.706 C 610.429 790.885 609.184 770.565 609.178 751.597 L 609.144 666.976 C 641.076 666.626 673.388 666.902 705.348 666.926 C 712.639 695.4 720.76 725.598 734.635 751.624 C 738.959 734.083 746.968 717.663 758.131 703.457 C 780.353 675.693 808.5 664.018 842.961 660.394 z"/>
      <path transform="translate(0,0)" fill="rgb(20,168,0)" d="M 1436.47 660.958 C 1505.23 654.414 1566.31 704.811 1572.93 773.57 C 1579.55 842.33 1529.22 903.458 1460.47 910.16 C 1391.61 916.873 1330.36 866.446 1323.73 797.576 C 1317.09 728.705 1367.59 667.514 1436.47 660.958 z"/>
      <path transform="translate(0,0)" fill="rgb(20,168,0)" d="M 1115.08 666.943 L 1185.27 666.932 L 1209.59 761.215 C 1211.32 767.941 1216.35 791.346 1218.87 796.634 C 1221.68 807.877 1224.53 820.201 1227.93 831.185 C 1230.89 820.424 1233.58 809.591 1235.99 798.696 L 1267.88 666.922 L 1326.81 666.891 C 1319.84 694.908 1311.16 724.63 1303.48 752.693 L 1262.06 903.803 C 1240.12 904.061 1217.75 903.85 1195.77 903.863 L 1162.11 779.452 C 1155.48 773.211 1154.95 757.931 1151.26 750.052 L 1149.92 749.774 C 1145.3 756.3 1146.78 764.266 1141.02 769.301 C 1128.79 813.686 1116.93 859.899 1104.09 903.862 L 1037.86 903.833 L 976.538 666.952 L 1032.36 666.931 C 1046.15 721.133 1057.98 777.003 1072.08 830.838 C 1076.86 818.634 1081.23 796.647 1085.02 783.373 C 1095.76 745.823 1104.1 704.117 1115.08 666.943 z"/>
      <path transform="translate(0,0)" fill="rgb(20,168,0)" d="M 1757.16 573.261 L 1812.36 573.303 L 1812.4 737.186 C 1859.97 736.943 1889.48 715.354 1892.82 666.988 C 1910.57 666.537 1930.06 666.921 1947.95 666.935 C 1944.51 718.927 1923.08 752.071 1876.14 774.787 C 1901.84 813.279 1928.9 851.917 1955.12 890.136 L 1964.36 903.838 L 1902.2 903.827 L 1825.04 787.282 L 1812.39 787.323 C 1811.58 825.24 1812.24 865.7 1812.19 903.823 L 1757.07 903.852 L 1757.16 573.261 z"/>
      <path transform="translate(0,0)" fill="rgb(20,168,0)" d="M 1704.94 664.329 C 1715.43 663.585 1722.59 663.655 1733.13 663.97 L 1733.21 718.001 C 1729.59 717.896 1725.96 717.832 1722.33 717.809 C 1645.61 717.473 1651.64 771.7 1651.64 830.874 L 1651.58 903.72 L 1599.75 903.772 L 1597.95 903.638 C 1596.15 901.423 1596.1 900.038 1596.15 896.741 C 1596.52 871.839 1596.38 846.622 1596.37 821.747 L 1596.45 666.989 C 1614.3 666.669 1632.94 666.934 1650.86 666.965 L 1651 691.639 C 1666.78 674.478 1681.91 667.126 1704.94 664.329 z"/>
    </g>
  </svg>
</svg>
